<svg width="24" height="25" viewBox="0 0 24 25" fill="none" xmlns="http://www.w3.org/2000/svg">
<path d="M12 2.5V22.5" stroke="#49AE44" stroke-width="1.5" stroke-linecap="round"/>
<path d="M12 2.5V22.5" stroke="black" stroke-opacity="0.2" stroke-width="1.5" stroke-linecap="round"/>
<path d="M12 2.5C11.576 2.5 10.9766 2.7661 9.77771 3.29829C8.89838 3.68863 7.79783 4.11619 6.54932 4.4711C4.72192 4.99056 3.80822 5.25029 3.40411 5.78529C3 6.32028 3 7.14029 3 8.78029V11.6833C3 17.3085 8.06277 20.6835 10.594 22.0194C11.2011 22.3398 11.5046 22.5 12 22.5V2.5Z" fill="#49AE44"/>
<path d="M12 2.5C11.576 2.5 10.9766 2.7661 9.77771 3.29829C8.89838 3.68863 7.79783 4.11619 6.54932 4.4711C4.72192 4.99056 3.80822 5.25029 3.40411 5.78529C3 6.32028 3 7.14029 3 8.78029V11.6833C3 17.3085 8.06277 20.6835 10.594 22.0194C11.2011 22.3398 11.5046 22.5 12 22.5V2.5Z" fill="black" fill-opacity="0.2"/>
<path d="M12 2.5C12.424 2.5 13.0234 2.7661 14.2223 3.29829C15.1016 3.68863 16.2022 4.1162 17.4507 4.4711C19.2781 4.99056 20.1918 5.25029 20.5959 5.78529C21 6.32028 21 7.14029 21 8.78029V11.6833C21 17.3085 15.9372 20.6835 13.406 22.0194C12.7989 22.3398 12.4954 22.5 12 22.5M12 2.5C11.576 2.5 10.9766 2.7661 9.77771 3.29829C8.89838 3.68863 7.79783 4.11619 6.54932 4.4711C4.72192 4.99056 3.80822 5.25029 3.40411 5.78529C3 6.32028 3 7.14029 3 8.78029V11.6833C3 17.3085 8.06277 20.6835 10.594 22.0194C11.2011 22.3398 11.5046 22.5 12 22.5M12 2.5V22.5" stroke="#49AE44" stroke-width="1.5" stroke-linecap="round"/>
<path d="M12 2.5C12.424 2.5 13.0234 2.7661 14.2223 3.29829C15.1016 3.68863 16.2022 4.1162 17.4507 4.4711C19.2781 4.99056 20.1918 5.25029 20.5959 5.78529C21 6.32028 21 7.14029 21 8.78029V11.6833C21 17.3085 15.9372 20.6835 13.406 22.0194C12.7989 22.3398 12.4954 22.5 12 22.5M12 2.5C11.576 2.5 10.9766 2.7661 9.77771 3.29829C8.89838 3.68863 7.79783 4.11619 6.54932 4.4711C4.72192 4.99056 3.80822 5.25029 3.40411 5.78529C3 6.32028 3 7.14029 3 8.78029V11.6833C3 17.3085 8.06277 20.6835 10.594 22.0194C11.2011 22.3398 11.5046 22.5 12 22.5M12 2.5V22.5" stroke="black" stroke-opacity="0.2" stroke-width="1.5" stroke-linecap="round"/>
</svg>
