<svg width="33" height="32" viewBox="0 0 33 32" fill="none" xmlns="http://www.w3.org/2000/svg">
<path d="M26.8751 17.43L23.5001 10.58L27.0001 8.9L26.5651 8L22.6301 9.9C22.5709 9.9288 22.518 9.969 22.4744 10.0183C22.4308 10.0676 22.3973 10.125 22.376 10.1872C22.3546 10.2495 22.3457 10.3153 22.3499 10.381C22.354 10.4467 22.3711 10.5109 22.4001 10.57L22.6551 11.07C21.9351 11.135 20.6951 11.005 18.6551 10.18C17.9071 9.84805 17.0865 9.71329 16.2716 9.78856C15.4567 9.86384 14.6746 10.1466 14.0001 10.61C13.3492 11.0645 12.7781 11.6238 12.3101 12.265C11.8261 12.125 11.3647 11.9162 10.9401 11.645L11.0601 11.44C11.093 11.3831 11.1144 11.3202 11.1229 11.255C11.1315 11.1898 11.1271 11.1235 11.1101 11.06C11.093 10.9962 11.0635 10.9363 11.0231 10.884C10.9828 10.8316 10.9325 10.7878 10.8751 10.755L7.19008 8.65L6.69008 9.515L9.94508 11.375L6.08508 18.005L2.83008 16.145L2.33008 17.01L6.00008 19.12C6.11489 19.1852 6.25082 19.2023 6.37821 19.1677C6.5056 19.133 6.61412 19.0494 6.68008 18.935L6.80008 18.73L7.75508 19.435L7.65008 19.59C7.55027 19.7344 7.4799 19.897 7.44301 20.0686C7.40612 20.2402 7.40342 20.4174 7.43508 20.59C7.466 20.7669 7.53189 20.9358 7.62891 21.0869C7.72592 21.238 7.85211 21.3683 8.00008 21.47L8.23508 21.63C8.46003 21.7853 8.72671 21.869 9.00008 21.87C9.03837 21.8724 9.07678 21.8724 9.11508 21.87C9.18873 22.1682 9.36594 22.4304 9.61508 22.61L9.85008 22.775C10.0736 22.9287 10.3387 23.0107 10.6101 23.01C10.6932 23.0176 10.7769 23.0176 10.8601 23.01C10.9565 22.9906 11.0504 22.9604 11.1401 22.92C11.2402 23.0894 11.3748 23.2359 11.5351 23.35L11.7701 23.51C11.9932 23.6652 12.2583 23.7489 12.5301 23.75H12.6501C12.732 24.0497 12.9182 24.3103 13.1751 24.485L13.4051 24.645C13.6286 24.7987 13.8938 24.8807 14.1651 24.88C14.3852 24.8804 14.6021 24.8274 14.7971 24.7255C14.9922 24.6236 15.1597 24.4759 15.2851 24.295L15.4251 24.09L16.7751 24.905C17.0061 25.0441 17.2704 25.1184 17.5401 25.12C17.7986 25.1201 18.0527 25.0534 18.2779 24.9264C18.503 24.7994 18.6915 24.6163 18.8251 24.395C18.9174 24.2414 18.9802 24.0718 19.0101 23.895C19.1432 23.9345 19.2812 23.9547 19.4201 23.955C19.6786 23.9551 19.9327 23.8884 20.1579 23.7614C20.383 23.6344 20.5715 23.4513 20.7051 23.23C20.7999 23.068 20.8643 22.8901 20.8951 22.705C21.0263 22.7452 21.1628 22.7654 21.3001 22.765C21.5577 22.7643 21.8109 22.6972 22.0351 22.5702C22.2593 22.4432 22.447 22.2606 22.5801 22.04C22.6669 21.895 22.7278 21.7359 22.7601 21.57L22.8351 21.615C23.0676 21.755 23.3337 21.8293 23.6051 21.83C23.8636 21.8301 24.1177 21.7634 24.3429 21.6364C24.568 21.5094 24.7565 21.3263 24.8901 21.105C25.0283 20.872 25.1009 20.6059 25.1001 20.335C25.1011 20.1228 25.057 19.9128 24.9708 19.7188C24.8846 19.5249 24.7583 19.3515 24.6001 19.21C24.9347 18.6623 25.3729 18.1851 25.8901 17.805L26.1751 18.38C26.2163 18.4642 26.2804 18.535 26.3599 18.5845C26.4395 18.634 26.5314 18.6602 26.6251 18.66C26.6996 18.6596 26.773 18.6425 26.8401 18.61L30.7751 16.71L30.3401 15.81L26.8751 17.43ZM9.31008 20.715C9.28353 20.7542 9.24942 20.7877 9.20974 20.8135C9.17006 20.8393 9.12562 20.8569 9.07903 20.8653C9.03245 20.8737 8.98465 20.8727 8.93846 20.8623C8.89227 20.852 8.84862 20.8325 8.81008 20.805L8.57508 20.645C8.53588 20.6185 8.5024 20.5843 8.47658 20.5447C8.45077 20.505 8.43315 20.4605 8.42476 20.414C8.41638 20.3674 8.41739 20.3196 8.42775 20.2734C8.43811 20.2272 8.4576 20.1835 8.48508 20.145L9.22008 19.08C9.2729 19.0038 9.35383 18.9516 9.44508 18.935C9.49103 18.9271 9.53808 18.9283 9.58355 18.9386C9.62901 18.9489 9.67201 18.9681 9.71008 18.995L9.94008 19.155C9.97929 19.1796 10.0126 19.2124 10.0377 19.2513C10.0627 19.2902 10.0789 19.3341 10.0851 19.38C10.0948 19.4256 10.095 19.4727 10.0855 19.5183C10.0761 19.5639 10.0572 19.6071 10.0301 19.645L9.31008 20.715ZM10.9451 21.845C10.8923 21.9212 10.8113 21.9734 10.7201 21.99C10.628 22.0048 10.5337 21.9852 10.4551 21.935L10.2201 21.775C10.1809 21.7485 10.1474 21.7143 10.1216 21.6747C10.0958 21.635 10.0781 21.5905 10.0698 21.544C10.0614 21.4974 10.0624 21.4496 10.0728 21.4034C10.0831 21.3572 10.1026 21.3135 10.1301 21.275L11.1301 19.81C11.1556 19.7717 11.1888 19.739 11.2275 19.7141C11.2662 19.6891 11.3096 19.6724 11.3551 19.665H11.4201C11.4912 19.6648 11.5608 19.6857 11.6201 19.725L11.8501 19.885C11.927 19.938 11.9807 20.0186 12.0001 20.11C12.0082 20.1559 12.0071 20.2031 11.9968 20.2486C11.9865 20.2941 11.9672 20.3371 11.9401 20.375L10.9451 21.845ZM12.8651 22.58C12.8385 22.6192 12.8044 22.6527 12.7647 22.6785C12.7251 22.7043 12.6806 22.7219 12.634 22.7303C12.5874 22.7387 12.5397 22.7377 12.4935 22.7273C12.4473 22.717 12.4036 22.6975 12.3651 22.67L12.1301 22.51C12.055 22.4561 12.0032 22.3757 11.9851 22.285C11.9703 22.1929 11.9898 22.0986 12.0401 22.02L12.7651 20.97C12.8188 20.8911 12.9017 20.8368 12.9954 20.819C13.0892 20.8012 13.1862 20.8213 13.2651 20.875L13.5001 21.04C13.5393 21.0665 13.5728 21.1007 13.5986 21.1403C13.6244 21.18 13.642 21.2245 13.6504 21.271C13.6588 21.3176 13.6578 21.3654 13.6474 21.4116C13.637 21.4578 13.6176 21.5015 13.5901 21.54L12.8651 22.58ZM14.9451 23.08L14.5001 23.69C14.4448 23.767 14.3616 23.8195 14.2683 23.8363C14.175 23.8531 14.0788 23.8329 14.0001 23.78L13.7651 23.62C13.7259 23.5935 13.6924 23.5593 13.6666 23.5197C13.6408 23.48 13.6231 23.4355 13.6148 23.389C13.6064 23.3424 13.6074 23.2946 13.6178 23.2484C13.6281 23.2022 13.6476 23.1585 13.6751 23.12L14.1201 22.475C14.1466 22.4358 14.1807 22.4023 14.2204 22.3765C14.2601 22.3507 14.3045 22.3331 14.3511 22.3247C14.3977 22.3163 14.4455 22.3173 14.4917 22.3277C14.5379 22.338 14.5815 22.3575 14.6201 22.385L14.8501 22.545C14.8897 22.5712 14.9236 22.605 14.9499 22.6445C14.9762 22.684 14.9943 22.7283 15.0032 22.7749C15.012 22.8216 15.0114 22.8695 15.0015 22.9159C14.9915 22.9622 14.9723 23.0062 14.9451 23.045V23.08ZM24.0751 20.58C24.0069 20.6921 23.8973 20.7729 23.7701 20.805C23.6427 20.8366 23.508 20.8168 23.3951 20.75L20.3951 18.955L19.8951 19.81L21.6001 20.81C21.7122 20.8782 21.793 20.9877 21.8251 21.115C21.8567 21.2424 21.8369 21.3771 21.7701 21.49C21.7019 21.6021 21.5923 21.6829 21.4651 21.715C21.3377 21.7466 21.203 21.7268 21.0901 21.66L18.9601 20.375L18.4601 21.23L19.7401 22C19.8501 22.0705 19.9302 22.1791 19.9651 22.305C19.9865 22.3996 19.98 22.4983 19.9463 22.5893C19.9126 22.6802 19.8531 22.7593 19.7752 22.8171C19.6974 22.8749 19.6043 22.9087 19.5075 22.9146C19.4108 22.9204 19.3144 22.898 19.2301 22.85L17.1001 21.565L16.6001 22.42L17.8851 23.2C17.9688 23.2779 18.0233 23.382 18.0395 23.4952C18.0557 23.6083 18.0327 23.7236 17.9742 23.8219C17.9157 23.9201 17.8254 23.9953 17.7182 24.035C17.611 24.0747 17.4934 24.0765 17.3851 24.04L15.9651 23.18C16.0196 22.9848 16.0315 22.7802 16.0001 22.58C15.9685 22.4053 15.9028 22.2385 15.8067 22.0892C15.7106 21.9399 15.586 21.8111 15.4401 21.71L15.1901 21.58C15.0283 21.4691 14.8438 21.3957 14.6501 21.365C14.66 21.2686 14.66 21.1714 14.6501 21.075C14.6193 20.8994 14.5533 20.7319 14.4563 20.5824C14.3592 20.4329 14.2329 20.3046 14.0851 20.205L13.8551 20.045C13.5974 19.8685 13.2862 19.7871 12.9751 19.815C12.8857 19.5134 12.6927 19.2531 12.4301 19.08L12.1951 18.92C11.9033 18.7189 11.5437 18.6416 11.1951 18.705C11.0992 18.7243 11.0055 18.7528 10.9151 18.79C10.8148 18.6221 10.6802 18.4773 10.5201 18.365L10.2851 18.205C9.98974 18.0024 9.62618 17.9249 9.27388 17.9895C8.92159 18.0542 8.60922 18.2557 8.40508 18.55L8.35508 18.625L7.35508 17.875L10.4451 12.525C10.8515 12.7806 11.2861 12.9887 11.7401 13.145C11.2502 13.8805 10.9182 14.7096 10.7651 15.58C10.7776 15.8381 10.8783 16.0841 11.0503 16.277C11.2222 16.4699 11.4551 16.598 11.7101 16.64C12.6201 16.88 14.3401 16.515 15.6001 14.64L23.9001 19.845C23.974 19.8888 24.0354 19.9509 24.0783 20.0254C24.1212 20.0998 24.1442 20.1841 24.1451 20.27C24.1451 20.3597 24.1209 20.4478 24.0751 20.525V20.58ZM23.7851 18.58L20.1051 16.275C20.6465 15.9626 21.1071 15.5276 21.4501 15.005L20.5801 14.505C20.2165 15.0219 19.7087 15.4201 19.1201 15.65L15.7051 13.51C15.6475 13.4741 15.5833 13.4502 15.5162 13.4399C15.4492 13.4296 15.3808 13.433 15.3151 13.45C15.2503 13.4665 15.1895 13.4958 15.1363 13.5361C15.083 13.5765 15.0384 13.6271 15.0051 13.685C14.1701 15.16 13.0051 15.685 12.2701 15.685C12.0932 15.7031 11.9157 15.657 11.7701 15.555C12.1932 13.903 13.1667 12.4445 14.5301 11.42C15.0672 11.045 15.6927 10.8165 16.345 10.7569C16.9973 10.6972 17.6539 10.8086 18.2501 11.08C20.3001 11.915 21.9251 12.215 23.0901 11.99L25.4651 16.815C24.7911 17.2832 24.2195 17.8837 23.7851 18.58Z" fill="white"/>
<path d="M27.2002 15.2952L28.1962 14.8057L28.6372 15.7027L27.6417 16.1927L27.2002 15.2952Z" fill="white"/>
</svg>
