<svg width="25" height="25" viewBox="0 0 25 25" fill="none" xmlns="http://www.w3.org/2000/svg">
<path fill-rule="evenodd" clip-rule="evenodd" d="M17.4727 12.9722C18.025 12.9722 18.4727 13.4199 18.4727 13.9722V16.4722H20.9727C21.525 16.4722 21.9727 16.9199 21.9727 17.4722C21.9727 18.0245 21.525 18.4722 20.9727 18.4722H18.4727V20.9722C18.4727 21.5245 18.025 21.9722 17.4727 21.9722C16.9204 21.9722 16.4727 21.5245 16.4727 20.9722V18.4722H13.9727C13.4204 18.4722 12.9727 18.0245 12.9727 17.4722C12.9727 16.9199 13.4204 16.4722 13.9727 16.4722H16.4727V13.9722C16.4727 13.4199 16.9204 12.9722 17.4727 12.9722Z" fill="#49AE44"/>
<path fill-rule="evenodd" clip-rule="evenodd" d="M17.4727 12.9722C18.025 12.9722 18.4727 13.4199 18.4727 13.9722V16.4722H20.9727C21.525 16.4722 21.9727 16.9199 21.9727 17.4722C21.9727 18.0245 21.525 18.4722 20.9727 18.4722H18.4727V20.9722C18.4727 21.5245 18.025 21.9722 17.4727 21.9722C16.9204 21.9722 16.4727 21.5245 16.4727 20.9722V18.4722H13.9727C13.4204 18.4722 12.9727 18.0245 12.9727 17.4722C12.9727 16.9199 13.4204 16.4722 13.9727 16.4722H16.4727V13.9722C16.4727 13.4199 16.9204 12.9722 17.4727 12.9722Z" fill="black" fill-opacity="0.2"/>
<path d="M15.2227 20.9722H3.22266C2.80845 20.9722 2.47266 20.6364 2.47266 20.2222C2.47266 16.5456 5.03288 13.4669 8.46776 12.6717C6.43123 11.9496 4.97266 10.0062 4.97266 7.72217C4.97266 4.82268 7.32316 2.47217 10.2227 2.47217C13.1222 2.47217 15.4727 4.82268 15.4727 7.72217C15.4727 10.0062 14.0141 11.9496 11.9776 12.6717C13.1939 12.9533 14.3006 13.5212 15.2227 14.3006V15.2222H13.9727C12.7301 15.2222 11.7227 16.2296 11.7227 17.4722C11.7227 18.7148 12.7301 19.7222 13.9727 19.7222H15.2227V20.9722Z" fill="#49AE44"/>
<path d="M15.2227 20.9722H3.22266C2.80845 20.9722 2.47266 20.6364 2.47266 20.2222C2.47266 16.5456 5.03288 13.4669 8.46776 12.6717C6.43123 11.9496 4.97266 10.0062 4.97266 7.72217C4.97266 4.82268 7.32316 2.47217 10.2227 2.47217C13.1222 2.47217 15.4727 4.82268 15.4727 7.72217C15.4727 10.0062 14.0141 11.9496 11.9776 12.6717C13.1939 12.9533 14.3006 13.5212 15.2227 14.3006V15.2222H13.9727C12.7301 15.2222 11.7227 16.2296 11.7227 17.4722C11.7227 18.7148 12.7301 19.7222 13.9727 19.7222H15.2227V20.9722Z" fill="black" fill-opacity="0.2"/>
</svg>
