<svg width="50" height="50" viewBox="0 0 50 50" fill="none" xmlns="http://www.w3.org/2000/svg">
<path d="M1 25C1 11.7452 11.7452 1 25 1C38.2548 1 49 11.7452 49 25C49 38.2548 38.2548 49 25 49C11.7452 49 1 38.2548 1 25Z" fill="white" stroke="#ABDAA9"/>
<path d="M30.8187 17.1772C32.7269 17.1772 34.7483 18.2229 36.1869 20.0269C31.4707 22.6274 32.2347 29.403 37.0004 31.2153C36.3452 32.6756 36.0298 33.3282 35.1859 34.6216C34.0084 36.4273 32.3478 38.6763 30.2884 38.6929C28.4607 38.7127 27.9893 37.4945 25.5082 37.5093C23.0268 37.5225 22.5092 38.7159 20.6781 38.6978C18.6205 38.6795 17.0469 36.6509 15.8695 34.8452C12.5753 29.7998 12.2289 23.8767 14.2601 20.7261C15.7053 18.4891 17.9849 17.1802 20.1263 17.1802C22.3056 17.1802 23.677 18.3833 25.4818 18.3833C27.2323 18.3832 28.2981 17.1773 30.8187 17.1772ZM30.267 10.6001C30.5182 12.3067 29.8239 13.9787 28.9076 15.1616C27.9272 16.4304 26.2372 17.412 24.6 17.3608C24.3011 15.7269 25.0663 14.0433 25.9974 12.9116C27.0189 11.6627 28.7693 10.7042 30.267 10.6001Z" fill="#212B36"/>
</svg>
