<svg width="12" height="12" viewBox="0 0 12 12" fill="none" xmlns="http://www.w3.org/2000/svg">
<g clip-path="url(#clip0_16802_6088)">
<path d="M11 6C11 3.23858 8.7614 1 6 1C3.23858 1 1 3.23858 1 6C1 8.7614 3.23858 11 6 11C8.7614 11 11 8.7614 11 6Z" stroke="#49AE44"/>
<path d="M11 6C11 3.23858 8.7614 1 6 1C3.23858 1 1 3.23858 1 6C1 8.7614 3.23858 11 6 11C8.7614 11 11 8.7614 11 6Z" stroke="black" stroke-opacity="0.2"/>
<path d="M4 6L5.5 7.5L8 4.5" stroke="#49AE44" stroke-linecap="round" stroke-linejoin="round"/>
<path d="M4 6L5.5 7.5L8 4.5" stroke="black" stroke-opacity="0.2" stroke-linecap="round" stroke-linejoin="round"/>
</g>
<defs>
<clipPath id="clip0_16802_6088">
<rect width="12" height="12" fill="white"/>
</clipPath>
</defs>
</svg>
