<svg width="25" height="25" viewBox="0 0 25 25" fill="none" xmlns="http://www.w3.org/2000/svg">
<path d="M12.6755 1.75669C13.179 1.79445 13.5869 2.02167 13.9597 2.31333C14.3104 2.58769 14.6984 2.97581 15.1521 3.42954L15.8542 4.0565C15.8542 4.0565 16.3215 4.13364 16.9675 4.13364C17.6786 4.13361 18.2865 4.13377 18.7722 4.19907C19.2908 4.26881 19.7807 4.42544 20.1775 4.82212C20.5742 5.21882 20.7308 5.70884 20.8005 6.22739C20.8658 6.71317 20.866 7.32185 20.8659 8.03306L20.9187 9.08677L21.57 9.84751C22.0238 10.3013 22.4119 10.6892 22.6863 11.0399C22.9779 11.4127 23.2051 11.8206 23.2429 12.3241C23.2517 12.441 23.2517 12.5588 23.2429 12.6756C23.2051 13.1792 22.978 13.587 22.6863 13.9598C22.4119 14.3105 22.0238 14.6985 21.57 15.1522L20.9187 15.9129L20.8659 16.9676C20.866 17.6787 20.8658 18.2866 20.8005 18.7723C20.7308 19.2909 20.5742 19.7808 20.1775 20.1776C19.7807 20.5743 19.2908 20.7309 18.7722 20.8006C18.2865 20.8659 17.6786 20.8661 16.9675 20.8661L15.9128 20.9188L15.1531 21.5702C14.6993 22.024 14.3104 22.412 13.9597 22.6864C13.5868 22.9781 13.179 23.2053 12.6755 23.243C12.5586 23.2518 12.4408 23.2518 12.324 23.243C11.8205 23.2052 11.4126 22.9781 11.0398 22.6864C10.6891 22.412 10.3011 22.0239 9.84739 21.5702L9.08665 20.9188L8.03294 20.8661C7.32173 20.8661 6.71305 20.8659 6.22727 20.8006C5.70872 20.7309 5.2187 20.5743 4.822 20.1776C4.42532 19.7808 4.26869 19.2909 4.19895 18.7723C4.13365 18.2866 4.13349 17.6787 4.13352 16.9676L4.08079 15.9129L3.42942 15.1522C2.97569 14.6985 2.58757 14.3105 2.31321 13.9598C2.02155 13.587 1.79433 13.1791 1.75657 12.6756C1.74781 12.5588 1.74781 12.441 1.75657 12.3241C1.79438 11.8206 2.02154 11.4127 2.31321 11.0399C2.58759 10.6892 2.97565 10.3012 3.42942 9.84751L4.08079 9.08677L4.13352 8.03306C4.13349 7.32185 4.13364 6.71317 4.19895 6.22739C4.26871 5.70883 4.42529 5.21883 4.822 4.82212C5.21871 4.42541 5.70871 4.26884 6.22727 4.19907C6.71305 4.13376 7.32173 4.13361 8.03294 4.13364C8.67865 4.13362 9.08665 4.08091 9.08665 4.08091L9.84739 3.42954C10.3011 2.97577 10.6891 2.58771 11.0398 2.31333C11.4126 2.02166 11.8205 1.7945 12.324 1.75669C12.4408 1.74793 12.5586 1.74793 12.6755 1.75669ZM12.4997 7.49986C11.9475 7.49991 11.4998 7.94765 11.4997 8.49986V12.4999C11.4997 12.8687 11.7029 13.2077 12.0281 13.3817L14.8318 14.8817C15.3187 15.1422 15.9247 14.9585 16.1853 14.4715C16.4457 13.9846 16.2621 13.3785 15.7751 13.118L13.4997 11.9012V8.49986C13.4997 7.94762 13.052 7.49986 12.4997 7.49986Z" fill="#49AE44"/>
<path d="M12.6755 1.75669C13.179 1.79445 13.5869 2.02167 13.9597 2.31333C14.3104 2.58769 14.6984 2.97581 15.1521 3.42954L15.8542 4.0565C15.8542 4.0565 16.3215 4.13364 16.9675 4.13364C17.6786 4.13361 18.2865 4.13377 18.7722 4.19907C19.2908 4.26881 19.7807 4.42544 20.1775 4.82212C20.5742 5.21882 20.7308 5.70884 20.8005 6.22739C20.8658 6.71317 20.866 7.32185 20.8659 8.03306L20.9187 9.08677L21.57 9.84751C22.0238 10.3013 22.4119 10.6892 22.6863 11.0399C22.9779 11.4127 23.2051 11.8206 23.2429 12.3241C23.2517 12.441 23.2517 12.5588 23.2429 12.6756C23.2051 13.1792 22.978 13.587 22.6863 13.9598C22.4119 14.3105 22.0238 14.6985 21.57 15.1522L20.9187 15.9129L20.8659 16.9676C20.866 17.6787 20.8658 18.2866 20.8005 18.7723C20.7308 19.2909 20.5742 19.7808 20.1775 20.1776C19.7807 20.5743 19.2908 20.7309 18.7722 20.8006C18.2865 20.8659 17.6786 20.8661 16.9675 20.8661L15.9128 20.9188L15.1531 21.5702C14.6993 22.024 14.3104 22.412 13.9597 22.6864C13.5868 22.9781 13.179 23.2053 12.6755 23.243C12.5586 23.2518 12.4408 23.2518 12.324 23.243C11.8205 23.2052 11.4126 22.9781 11.0398 22.6864C10.6891 22.412 10.3011 22.0239 9.84739 21.5702L9.08665 20.9188L8.03294 20.8661C7.32173 20.8661 6.71305 20.8659 6.22727 20.8006C5.70872 20.7309 5.2187 20.5743 4.822 20.1776C4.42532 19.7808 4.26869 19.2909 4.19895 18.7723C4.13365 18.2866 4.13349 17.6787 4.13352 16.9676L4.08079 15.9129L3.42942 15.1522C2.97569 14.6985 2.58757 14.3105 2.31321 13.9598C2.02155 13.587 1.79433 13.1791 1.75657 12.6756C1.74781 12.5588 1.74781 12.441 1.75657 12.3241C1.79438 11.8206 2.02154 11.4127 2.31321 11.0399C2.58759 10.6892 2.97565 10.3012 3.42942 9.84751L4.08079 9.08677L4.13352 8.03306C4.13349 7.32185 4.13364 6.71317 4.19895 6.22739C4.26871 5.70883 4.42529 5.21883 4.822 4.82212C5.21871 4.42541 5.70871 4.26884 6.22727 4.19907C6.71305 4.13376 7.32173 4.13361 8.03294 4.13364C8.67865 4.13362 9.08665 4.08091 9.08665 4.08091L9.84739 3.42954C10.3011 2.97577 10.6891 2.58771 11.0398 2.31333C11.4126 2.02166 11.8205 1.7945 12.324 1.75669C12.4408 1.74793 12.5586 1.74793 12.6755 1.75669ZM12.4997 7.49986C11.9475 7.49991 11.4998 7.94765 11.4997 8.49986V12.4999C11.4997 12.8687 11.7029 13.2077 12.0281 13.3817L14.8318 14.8817C15.3187 15.1422 15.9247 14.9585 16.1853 14.4715C16.4457 13.9846 16.2621 13.3785 15.7751 13.118L13.4997 11.9012V8.49986C13.4997 7.94762 13.052 7.49986 12.4997 7.49986Z" fill="black" fill-opacity="0.2"/>
</svg>
