<svg width="32" height="32" viewBox="0 0 32 32" fill="none" xmlns="http://www.w3.org/2000/svg">
<g clip-path="url(#clip0_18171_1581)">
<rect width="32" height="32" rx="16" fill="#49AE44"/>
<path fill-rule="evenodd" clip-rule="evenodd" d="M19.7768 10.326C20.6115 9.49126 21.965 9.49126 22.7997 10.326C23.6346 11.1608 23.6346 12.5142 22.7997 13.349L22.455 13.6937L19.4321 10.6708L19.7768 10.326ZM18.6366 11.4663L21.6595 14.4892L17.0628 19.086C16.6101 19.5388 16.0428 19.8599 15.4217 20.0152L13.2498 20.5582C13.0581 20.6061 12.8553 20.5499 12.7156 20.4102C12.5759 20.2705 12.5197 20.0677 12.5676 19.876L13.1106 17.7041C13.2659 17.083 13.5871 16.5157 14.0398 16.063L18.6366 11.4663ZM14.9987 11.2H14.9525C13.7932 11.1999 12.8585 11.1999 12.1155 11.2877C11.3466 11.3786 10.6885 11.5722 10.1337 12.0275C9.94913 12.179 9.77985 12.3483 9.62834 12.5329C9.17303 13.0877 8.97947 13.7457 8.88858 14.5147C8.80075 15.2577 8.80077 16.1923 8.80078 17.3516V17.8156C8.80076 19.1453 8.80074 20.2171 8.91408 21.06C9.03174 21.9351 9.28345 22.672 9.86864 23.2571C10.4538 23.8423 11.1907 24.094 12.0658 24.2117C12.9086 24.325 13.9803 24.325 15.3099 24.325H15.7741C16.9334 24.325 17.868 24.325 18.6111 24.2371C19.38 24.1462 20.038 23.9527 20.5929 23.4974C20.7774 23.3459 20.9467 23.1766 21.0982 22.992C21.5535 22.4372 21.7471 21.7792 21.838 21.0103C21.9258 20.2672 21.9258 19.3326 21.9258 18.1734V18.127C21.9258 17.7244 21.5994 17.3979 21.1966 17.3979C20.7939 17.3979 20.4675 17.7244 20.4675 18.127C20.4675 19.3435 20.4663 20.1917 20.3898 20.839C20.3151 21.4703 20.1777 21.8149 19.9709 22.0669C19.88 22.1776 19.7784 22.2792 19.6677 22.3701C19.4157 22.5769 19.0712 22.7143 18.4398 22.7889C17.7925 22.8655 16.9443 22.8667 15.7278 22.8667H15.3633C13.9677 22.8667 12.9944 22.8651 12.2601 22.7663C11.5467 22.6705 11.1689 22.495 10.8998 22.2259C10.6308 21.9568 10.4553 21.5791 10.3594 20.8657C10.2607 20.1313 10.2591 19.158 10.2591 17.7625V17.3979C10.2591 16.1815 10.2603 15.3332 10.3368 14.6859C10.4115 14.0546 10.5489 13.71 10.7557 13.4581C10.8466 13.3473 10.9481 13.2457 11.0589 13.1548C11.3108 12.9481 11.6554 12.8106 12.2867 12.736C12.9341 12.6595 13.7823 12.6583 14.9987 12.6583C15.4014 12.6583 15.7279 12.3318 15.7279 11.9291C15.7279 11.5264 15.4014 11.2 14.9987 11.2Z" fill="white"/>
</g>
<defs>
<clipPath id="clip0_18171_1581">
<rect width="32" height="32" rx="16" fill="white"/>
</clipPath>
</defs>
</svg>
