<svg width="18" height="18" viewBox="0 0 18 18" fill="none" xmlns="http://www.w3.org/2000/svg">
<path d="M9.00078 11.7C9.71687 11.7 10.4036 11.4156 10.91 10.9092C11.4163 10.4029 11.7008 9.71613 11.7008 9.00005C11.7008 8.28396 11.4163 7.59721 10.91 7.09086C10.4036 6.58451 9.71687 6.30005 9.00078 6.30005C8.2847 6.30005 7.59794 6.58451 7.09159 7.09086C6.58524 7.59721 6.30078 8.28396 6.30078 9.00005C6.30078 9.71613 6.58524 10.4029 7.09159 10.9092C7.59794 11.4156 8.2847 11.7 9.00078 11.7ZM9.45078 2.25005C9.45078 2.1307 9.40337 2.01624 9.31898 1.93185C9.23459 1.84746 9.12013 1.80005 9.00078 1.80005C8.88143 1.80005 8.76697 1.84746 8.68258 1.93185C8.59819 2.01624 8.55078 2.1307 8.55078 2.25005V3.61805C7.27828 3.72429 6.0846 4.27803 5.18168 5.18095C4.27876 6.08387 3.72502 7.27755 3.61878 8.55005H2.25078C2.13143 8.55005 2.01697 8.59746 1.93258 8.68185C1.84819 8.76624 1.80078 8.8807 1.80078 9.00005C1.80078 9.1194 1.84819 9.23386 1.93258 9.31825C2.01697 9.40264 2.13143 9.45005 2.25078 9.45005H3.61878C3.72502 10.7225 4.27876 11.9162 5.18168 12.8191C6.0846 13.7221 7.27828 14.2758 8.55078 14.382V15.75C8.55078 15.8694 8.59819 15.9839 8.68258 16.0682C8.76697 16.1526 8.88143 16.2 9.00078 16.2C9.12013 16.2 9.23459 16.1526 9.31898 16.0682C9.40337 15.9839 9.45078 15.8694 9.45078 15.75V14.382C10.7233 14.2758 11.917 13.7221 12.8199 12.8191C13.7228 11.9162 14.2765 10.7225 14.3828 9.45005H15.7508C15.8701 9.45005 15.9846 9.40264 16.069 9.31825C16.1534 9.23386 16.2008 9.1194 16.2008 9.00005C16.2008 8.8807 16.1534 8.76624 16.069 8.68185C15.9846 8.59746 15.8701 8.55005 15.7508 8.55005H14.3828C14.2765 7.27755 13.7228 6.08387 12.8199 5.18095C11.917 4.27803 10.7233 3.72429 9.45078 3.61805V2.25005ZM9.00078 13.5C7.80731 13.5 6.66271 13.0259 5.8188 12.182C4.97489 11.3381 4.50078 10.1935 4.50078 9.00005C4.50078 7.80657 4.97489 6.66198 5.8188 5.81807C6.66271 4.97415 7.80731 4.50005 9.00078 4.50005C10.1943 4.50005 11.3388 4.97415 12.1828 5.81807C13.0267 6.66198 13.5008 7.80657 13.5008 9.00005C13.5008 10.1935 13.0267 11.3381 12.1828 12.182C11.3388 13.0259 10.1943 13.5 9.00078 13.5Z" fill="#49AE44"/>
<path d="M9.00078 11.7C9.71687 11.7 10.4036 11.4156 10.91 10.9092C11.4163 10.4029 11.7008 9.71613 11.7008 9.00005C11.7008 8.28396 11.4163 7.59721 10.91 7.09086C10.4036 6.58451 9.71687 6.30005 9.00078 6.30005C8.2847 6.30005 7.59794 6.58451 7.09159 7.09086C6.58524 7.59721 6.30078 8.28396 6.30078 9.00005C6.30078 9.71613 6.58524 10.4029 7.09159 10.9092C7.59794 11.4156 8.2847 11.7 9.00078 11.7ZM9.45078 2.25005C9.45078 2.1307 9.40337 2.01624 9.31898 1.93185C9.23459 1.84746 9.12013 1.80005 9.00078 1.80005C8.88143 1.80005 8.76697 1.84746 8.68258 1.93185C8.59819 2.01624 8.55078 2.1307 8.55078 2.25005V3.61805C7.27828 3.72429 6.0846 4.27803 5.18168 5.18095C4.27876 6.08387 3.72502 7.27755 3.61878 8.55005H2.25078C2.13143 8.55005 2.01697 8.59746 1.93258 8.68185C1.84819 8.76624 1.80078 8.8807 1.80078 9.00005C1.80078 9.1194 1.84819 9.23386 1.93258 9.31825C2.01697 9.40264 2.13143 9.45005 2.25078 9.45005H3.61878C3.72502 10.7225 4.27876 11.9162 5.18168 12.8191C6.0846 13.7221 7.27828 14.2758 8.55078 14.382V15.75C8.55078 15.8694 8.59819 15.9839 8.68258 16.0682C8.76697 16.1526 8.88143 16.2 9.00078 16.2C9.12013 16.2 9.23459 16.1526 9.31898 16.0682C9.40337 15.9839 9.45078 15.8694 9.45078 15.75V14.382C10.7233 14.2758 11.917 13.7221 12.8199 12.8191C13.7228 11.9162 14.2765 10.7225 14.3828 9.45005H15.7508C15.8701 9.45005 15.9846 9.40264 16.069 9.31825C16.1534 9.23386 16.2008 9.1194 16.2008 9.00005C16.2008 8.8807 16.1534 8.76624 16.069 8.68185C15.9846 8.59746 15.8701 8.55005 15.7508 8.55005H14.3828C14.2765 7.27755 13.7228 6.08387 12.8199 5.18095C11.917 4.27803 10.7233 3.72429 9.45078 3.61805V2.25005ZM9.00078 13.5C7.80731 13.5 6.66271 13.0259 5.8188 12.182C4.97489 11.3381 4.50078 10.1935 4.50078 9.00005C4.50078 7.80657 4.97489 6.66198 5.8188 5.81807C6.66271 4.97415 7.80731 4.50005 9.00078 4.50005C10.1943 4.50005 11.3388 4.97415 12.1828 5.81807C13.0267 6.66198 13.5008 7.80657 13.5008 9.00005C13.5008 10.1935 13.0267 11.3381 12.1828 12.182C11.3388 13.0259 10.1943 13.5 9.00078 13.5Z" fill="black" fill-opacity="0.2"/>
</svg>
