<svg width="50" height="50" viewBox="0 0 50 50" fill="none" xmlns="http://www.w3.org/2000/svg">
<path d="M1 25C1 11.7452 11.7452 1 25 1C38.2548 1 49 11.7452 49 25C49 38.2548 38.2548 49 25 49C11.7452 49 1 38.2548 1 25Z" fill="white" stroke="#ABDAA9"/>
<path d="M25.0001 18.6214C26.953 18.6214 28.2704 19.465 29.0215 20.1699L31.9566 17.3041C30.1539 15.6285 27.8081 14.6001 25.0001 14.6001C20.9326 14.6001 17.4197 16.9343 15.7095 20.3317L19.0721 22.9432C19.9157 20.4357 22.2499 18.6214 25.0001 18.6214Z" fill="#EA4335"/>
<path d="M34.984 25.2312C34.984 24.3761 34.9147 23.7521 34.7644 23.105H25V26.9645H30.7316C30.616 27.9236 29.992 29.3681 28.6053 30.3388L31.8871 32.881C33.8516 31.0668 34.984 28.3974 34.984 25.2312Z" fill="#4285F4"/>
<path d="M19.0837 27.0569C18.8641 26.4098 18.737 25.7164 18.737 25C18.737 24.2835 18.8641 23.5902 19.0721 22.9431L15.7094 20.3315C15.0045 21.7413 14.6001 23.3244 14.6001 25C14.6001 26.6755 15.0045 28.2587 15.7094 29.6684L19.0837 27.0569Z" fill="#FBBC05"/>
<path d="M25.0003 35.4002C27.8083 35.4002 30.1656 34.4758 31.8874 32.8811L28.6056 30.3389C27.7274 30.9514 26.5487 31.3789 25.0003 31.3789C22.2501 31.3789 19.9159 29.5647 19.0839 27.0571L15.7212 29.6687C17.4314 33.066 20.9327 35.4002 25.0003 35.4002Z" fill="#34A853"/>
</svg>
