<svg width="24" height="25" viewBox="0 0 24 25" fill="none" xmlns="http://www.w3.org/2000/svg">
<path d="M11.95 18.5C12.3 18.5 12.596 18.379 12.838 18.137C13.08 17.895 13.2007 17.5993 13.2 17.25C13.1993 16.9007 13.0787 16.6047 12.838 16.362C12.5973 16.1193 12.3013 15.9987 11.95 16C11.5987 16.0013 11.303 16.1223 11.063 16.363C10.823 16.6037 10.702 16.8993 10.7 17.25C10.698 17.6007 10.819 17.8967 11.063 18.138C11.307 18.3793 11.6027 18.5 11.95 18.5ZM11.05 14.65H12.9C12.9 14.1 12.9627 13.6667 13.088 13.35C13.2133 13.0333 13.5673 12.6 14.15 12.05C14.5833 11.6167 14.925 11.204 15.175 10.812C15.425 10.42 15.55 9.94934 15.55 9.4C15.55 8.46667 15.2083 7.75001 14.525 7.25001C13.8417 6.75001 13.0333 6.50001 12.1 6.50001C11.15 6.50001 10.3793 6.75001 9.788 7.25001C9.19667 7.75001 8.784 8.35001 8.55 9.05001L10.2 9.70001C10.2833 9.4 10.471 9.07501 10.763 8.72501C11.055 8.37501 11.5007 8.20001 12.1 8.20001C12.6333 8.20001 13.0333 8.346 13.3 8.638C13.5667 8.93 13.7 9.25067 13.7 9.60001C13.7 9.93334 13.6 10.246 13.4 10.538C13.2 10.83 12.95 11.1007 12.65 11.35C11.9167 12 11.4667 12.4917 11.3 12.825C11.1333 13.1583 11.05 13.7667 11.05 14.65ZM12 22.5C10.6167 22.5 9.31667 22.2377 8.1 21.713C6.88334 21.1883 5.825 20.4757 4.925 19.575C4.025 18.6743 3.31267 17.616 2.788 16.4C2.26333 15.184 2.00067 13.884 2 12.5C1.99933 11.116 2.262 9.81601 2.788 8.60001C3.314 7.38401 4.02633 6.32567 4.925 5.42501C5.82367 4.52434 6.882 3.81201 8.1 3.28801C9.318 2.76401 10.618 2.50134 12 2.50001C13.382 2.49867 14.682 2.76134 15.9 3.28801C17.118 3.81467 18.1763 4.52701 19.075 5.42501C19.9737 6.32301 20.6863 7.38134 21.213 8.60001C21.7397 9.81867 22.002 11.1187 22 12.5C21.998 13.8813 21.7353 15.1813 21.212 16.4C20.6887 17.6187 19.9763 18.677 19.075 19.575C18.1737 20.473 17.1153 21.1857 15.9 21.713C14.6847 22.2403 13.3847 22.5027 12 22.5Z" fill="#49AE44"/>
<path d="M11.95 18.5C12.3 18.5 12.596 18.379 12.838 18.137C13.08 17.895 13.2007 17.5993 13.2 17.25C13.1993 16.9007 13.0787 16.6047 12.838 16.362C12.5973 16.1193 12.3013 15.9987 11.95 16C11.5987 16.0013 11.303 16.1223 11.063 16.363C10.823 16.6037 10.702 16.8993 10.7 17.25C10.698 17.6007 10.819 17.8967 11.063 18.138C11.307 18.3793 11.6027 18.5 11.95 18.5ZM11.05 14.65H12.9C12.9 14.1 12.9627 13.6667 13.088 13.35C13.2133 13.0333 13.5673 12.6 14.15 12.05C14.5833 11.6167 14.925 11.204 15.175 10.812C15.425 10.42 15.55 9.94934 15.55 9.4C15.55 8.46667 15.2083 7.75001 14.525 7.25001C13.8417 6.75001 13.0333 6.50001 12.1 6.50001C11.15 6.50001 10.3793 6.75001 9.788 7.25001C9.19667 7.75001 8.784 8.35001 8.55 9.05001L10.2 9.70001C10.2833 9.4 10.471 9.07501 10.763 8.72501C11.055 8.37501 11.5007 8.20001 12.1 8.20001C12.6333 8.20001 13.0333 8.346 13.3 8.638C13.5667 8.93 13.7 9.25067 13.7 9.60001C13.7 9.93334 13.6 10.246 13.4 10.538C13.2 10.83 12.95 11.1007 12.65 11.35C11.9167 12 11.4667 12.4917 11.3 12.825C11.1333 13.1583 11.05 13.7667 11.05 14.65ZM12 22.5C10.6167 22.5 9.31667 22.2377 8.1 21.713C6.88334 21.1883 5.825 20.4757 4.925 19.575C4.025 18.6743 3.31267 17.616 2.788 16.4C2.26333 15.184 2.00067 13.884 2 12.5C1.99933 11.116 2.262 9.81601 2.788 8.60001C3.314 7.38401 4.02633 6.32567 4.925 5.42501C5.82367 4.52434 6.882 3.81201 8.1 3.28801C9.318 2.76401 10.618 2.50134 12 2.50001C13.382 2.49867 14.682 2.76134 15.9 3.28801C17.118 3.81467 18.1763 4.52701 19.075 5.42501C19.9737 6.32301 20.6863 7.38134 21.213 8.60001C21.7397 9.81867 22.002 11.1187 22 12.5C21.998 13.8813 21.7353 15.1813 21.212 16.4C20.6887 17.6187 19.9763 18.677 19.075 19.575C18.1737 20.473 17.1153 21.1857 15.9 21.713C14.6847 22.2403 13.3847 22.5027 12 22.5Z" fill="black" fill-opacity="0.2"/>
</svg>
