<svg width="28" height="28" viewBox="0 0 28 28" fill="none" xmlns="http://www.w3.org/2000/svg">
<rect width="28" height="28" rx="8" fill="#286025"/>
<path d="M18.5 17.75H9.5V16.25H18.5V17.75ZM18.5 14.75H9.5V13.25H18.5V14.75ZM18.5 11.75H9.5V10.25H18.5V11.75ZM7.25 21.5L8.375 20.375L9.5 21.5L10.625 20.375L11.75 21.5L12.875 20.375L14 21.5L15.125 20.375L16.25 21.5L17.375 20.375L18.5 21.5L19.625 20.375L20.75 21.5V6.5L19.625 7.625L18.5 6.5L17.375 7.625L16.25 6.5L15.125 7.625L14 6.5L12.875 7.625L11.75 6.5L10.625 7.625L9.5 6.5L8.375 7.625L7.25 6.5V21.5Z" fill="#FCF7F1"/>
</svg>
