<svg width="20" height="21" viewBox="0 0 20 21" fill="none" xmlns="http://www.w3.org/2000/svg">
<path d="M10.1461 1.54753C10.5656 1.57904 10.9057 1.76832 11.2164 2.01139C11.5086 2.24006 11.8325 2.56297 12.2105 2.94108L12.7955 3.46354C12.8074 3.46549 13.1924 3.52799 13.7222 3.528C14.3148 3.52797 14.8214 3.52828 15.2262 3.58268C15.6583 3.64079 16.0674 3.77067 16.398 4.10124C16.7287 4.43188 16.8585 4.8409 16.9166 5.27311C16.971 5.67788 16.9713 6.18443 16.9713 6.77702L17.0152 7.65593L17.5582 8.28972C17.9363 8.66781 18.2602 8.99064 18.4888 9.28288C18.732 9.59362 18.9213 9.9345 18.9527 10.3542C18.96 10.4513 18.96 10.549 18.9527 10.6462C18.9213 11.0656 18.7318 11.4058 18.4888 11.7165C18.2602 12.0087 17.9364 12.3325 17.5582 12.7106L17.0152 13.3444L16.9713 14.2223C16.9713 14.815 16.971 15.3224 16.9166 15.7272C16.8585 16.1592 16.7284 16.5676 16.398 16.8981C16.0674 17.2288 15.6584 17.3595 15.2262 17.4176C14.8214 17.472 14.3148 17.4714 13.7222 17.4714L12.8443 17.5163L12.2105 18.0583C11.8324 18.4365 11.5087 18.7603 11.2164 18.9889C10.9057 19.232 10.5656 19.4213 10.1461 19.4528C10.0487 19.4601 9.95051 19.4601 9.85311 19.4528C9.43352 19.4213 9.09349 19.232 8.78279 18.9889C8.49053 18.7603 8.16679 18.4364 7.78865 18.0583L7.15486 17.5163L6.27693 17.4714C5.68444 17.4714 5.17778 17.472 4.77303 17.4176C4.34078 17.3595 3.93182 17.2288 3.60115 16.8981C3.27069 16.5676 3.14073 16.1592 3.0826 15.7272C3.02817 15.3224 3.02788 14.815 3.02791 14.2223L2.98397 13.3444L2.441 12.7106C2.06281 12.3325 1.739 12.0087 1.51033 11.7165C1.26734 11.4058 1.0779 11.0657 1.04647 10.6462C1.03919 10.549 1.03921 10.4514 1.04647 10.3542C1.07792 9.9345 1.26721 9.59363 1.51033 9.28288C1.73899 8.99063 2.06286 8.66782 2.441 8.28972L2.98397 7.65593L3.02791 6.77702C3.02788 6.18443 3.02818 5.67788 3.0826 5.27311C3.14072 4.8409 3.27051 4.43188 3.60115 4.10124C3.93179 3.77071 4.34086 3.64079 4.77303 3.58268C5.17779 3.5283 5.68442 3.52797 6.27693 3.528C6.80899 3.52799 7.14722 3.48504 7.15486 3.48405L7.78865 2.94108C8.16676 2.56294 8.49055 2.24006 8.78279 2.01139C9.0935 1.7683 9.4335 1.57901 9.85311 1.54753C9.95051 1.54023 10.0487 1.54023 10.1461 1.54753ZM9.99959 6.33366C9.53936 6.33366 9.16659 6.70644 9.16658 7.16667V10.4997C9.16658 10.807 9.33513 11.09 9.60604 11.235L11.943 12.485C12.3487 12.702 12.8538 12.549 13.0709 12.1432C13.288 11.7374 13.1349 11.2324 12.7291 11.0153L10.8326 10.0007V7.16667C10.8326 6.70646 10.4598 6.33369 9.99959 6.33366Z" fill="#49AE44"/>
<path d="M10.1461 1.54753C10.5656 1.57904 10.9057 1.76832 11.2164 2.01139C11.5086 2.24006 11.8325 2.56297 12.2105 2.94108L12.7955 3.46354C12.8074 3.46549 13.1924 3.52799 13.7222 3.528C14.3148 3.52797 14.8214 3.52828 15.2262 3.58268C15.6583 3.64079 16.0674 3.77067 16.398 4.10124C16.7287 4.43188 16.8585 4.8409 16.9166 5.27311C16.971 5.67788 16.9713 6.18443 16.9713 6.77702L17.0152 7.65593L17.5582 8.28972C17.9363 8.66781 18.2602 8.99064 18.4888 9.28288C18.732 9.59362 18.9213 9.9345 18.9527 10.3542C18.96 10.4513 18.96 10.549 18.9527 10.6462C18.9213 11.0656 18.7318 11.4058 18.4888 11.7165C18.2602 12.0087 17.9364 12.3325 17.5582 12.7106L17.0152 13.3444L16.9713 14.2223C16.9713 14.815 16.971 15.3224 16.9166 15.7272C16.8585 16.1592 16.7284 16.5676 16.398 16.8981C16.0674 17.2288 15.6584 17.3595 15.2262 17.4176C14.8214 17.472 14.3148 17.4714 13.7222 17.4714L12.8443 17.5163L12.2105 18.0583C11.8324 18.4365 11.5087 18.7603 11.2164 18.9889C10.9057 19.232 10.5656 19.4213 10.1461 19.4528C10.0487 19.4601 9.95051 19.4601 9.85311 19.4528C9.43352 19.4213 9.09349 19.232 8.78279 18.9889C8.49053 18.7603 8.16679 18.4364 7.78865 18.0583L7.15486 17.5163L6.27693 17.4714C5.68444 17.4714 5.17778 17.472 4.77303 17.4176C4.34078 17.3595 3.93182 17.2288 3.60115 16.8981C3.27069 16.5676 3.14073 16.1592 3.0826 15.7272C3.02817 15.3224 3.02788 14.815 3.02791 14.2223L2.98397 13.3444L2.441 12.7106C2.06281 12.3325 1.739 12.0087 1.51033 11.7165C1.26734 11.4058 1.0779 11.0657 1.04647 10.6462C1.03919 10.549 1.03921 10.4514 1.04647 10.3542C1.07792 9.9345 1.26721 9.59363 1.51033 9.28288C1.73899 8.99063 2.06286 8.66782 2.441 8.28972L2.98397 7.65593L3.02791 6.77702C3.02788 6.18443 3.02818 5.67788 3.0826 5.27311C3.14072 4.8409 3.27051 4.43188 3.60115 4.10124C3.93179 3.77071 4.34086 3.64079 4.77303 3.58268C5.17779 3.5283 5.68442 3.52797 6.27693 3.528C6.80899 3.52799 7.14722 3.48504 7.15486 3.48405L7.78865 2.94108C8.16676 2.56294 8.49055 2.24006 8.78279 2.01139C9.0935 1.7683 9.4335 1.57901 9.85311 1.54753C9.95051 1.54023 10.0487 1.54023 10.1461 1.54753ZM9.99959 6.33366C9.53936 6.33366 9.16659 6.70644 9.16658 7.16667V10.4997C9.16658 10.807 9.33513 11.09 9.60604 11.235L11.943 12.485C12.3487 12.702 12.8538 12.549 13.0709 12.1432C13.288 11.7374 13.1349 11.2324 12.7291 11.0153L10.8326 10.0007V7.16667C10.8326 6.70646 10.4598 6.33369 9.99959 6.33366Z" fill="black" fill-opacity="0.2"/>
</svg>
