<svg width="25" height="25" viewBox="0 0 25 25" fill="none" xmlns="http://www.w3.org/2000/svg">
<path d="M12.167 15.5V17" stroke="#9DB2CE" stroke-width="1.5" stroke-linecap="round" stroke-linejoin="round"/>
<path d="M3.16699 11.5L3.31987 14.3633C3.48413 17.977 3.56626 19.7839 4.72584 20.8919C5.88542 22 7.69415 22 11.3116 22H13.0224C16.6398 22 18.4486 22 19.6082 20.8919C20.7677 19.7839 20.8499 17.977 21.0141 14.3633L21.167 11.5" stroke="#9DB2CE" stroke-width="1.5" stroke-linecap="round" stroke-linejoin="round"/>
<path d="M3.01417 10.9431C4.71347 14.1744 8.54619 15.5 12.167 15.5C15.7878 15.5 19.6205 14.1744 21.3198 10.9431C22.131 9.40056 21.5168 6.5 19.519 6.5H4.81499C2.81722 6.5 2.20302 9.40056 3.01417 10.9431Z" stroke="#9DB2CE" stroke-width="1.5"/>
<path d="M16.167 6.5L16.0787 6.19094C15.6387 4.65089 15.4187 3.88087 14.8949 3.44043C14.3711 3 13.6754 3 12.2839 3H12.05C10.6586 3 9.96286 3 9.43909 3.44043C8.91531 3.88087 8.6953 4.65089 8.25529 6.19094L8.16699 6.5" stroke="#9DB2CE" stroke-width="1.5"/>
</svg>
