<svg width="25" height="25" viewBox="0 0 25 25" fill="none" xmlns="http://www.w3.org/2000/svg">
<path fill-rule="evenodd" clip-rule="evenodd" d="M8.63906 4.21716C8.77982 3.23186 9.62366 2.5 10.619 2.5H14.8844C15.8797 2.5 16.7235 3.23186 16.8643 4.21716L17.2416 6.85858L15.2617 7.14142L14.8844 4.5H10.619L10.2416 7.14142L8.26172 6.85858L8.63906 4.21716Z" fill="#49AE44"/>
<path fill-rule="evenodd" clip-rule="evenodd" d="M8.63906 4.21716C8.77982 3.23186 9.62366 2.5 10.619 2.5H14.8844C15.8797 2.5 16.7235 3.23186 16.8643 4.21716L17.2416 6.85858L15.2617 7.14142L14.8844 4.5H10.619L10.2416 7.14142L8.26172 6.85858L8.63906 4.21716Z" fill="black" fill-opacity="0.2"/>
<path fill-rule="evenodd" clip-rule="evenodd" d="M12.75 15C13.3023 15 13.75 15.4477 13.75 16V17.5C13.75 18.0523 13.3023 18.5 12.75 18.5C12.1977 18.5 11.75 18.0523 11.75 17.5V16C11.75 15.4477 12.1977 15 12.75 15Z" fill="#49AE44"/>
<path fill-rule="evenodd" clip-rule="evenodd" d="M12.75 15C13.3023 15 13.75 15.4477 13.75 16V17.5C13.75 18.0523 13.3023 18.5 12.75 18.5C12.1977 18.5 11.75 18.0523 11.75 17.5V16C11.75 15.4477 12.1977 15 12.75 15Z" fill="black" fill-opacity="0.2"/>
<path fill-rule="evenodd" clip-rule="evenodd" d="M2.5 8C2.5 7.0335 3.2835 6.25 4.25 6.25H21.25C22.2165 6.25 23 7.0335 23 8V11C23 11.1164 22.9729 11.2313 22.9208 11.3354C21.2608 14.6555 17.0068 16.7939 12.75 16.75C8.49321 16.7939 4.23921 14.6555 2.57918 11.3354C2.52711 11.2313 2.5 11.1164 2.5 11V8Z" fill="#49AE44"/>
<path fill-rule="evenodd" clip-rule="evenodd" d="M2.5 8C2.5 7.0335 3.2835 6.25 4.25 6.25H21.25C22.2165 6.25 23 7.0335 23 8V11C23 11.1164 22.9729 11.2313 22.9208 11.3354C21.2608 14.6555 17.0068 16.7939 12.75 16.75C8.49321 16.7939 4.23921 14.6555 2.57918 11.3354C2.52711 11.2313 2.5 11.1164 2.5 11V8Z" fill="black" fill-opacity="0.2"/>
<path d="M10.3122 18.0605C7.83054 17.6542 5.44352 16.6071 3.625 15.0313L3.90528 20.6369C3.97846 22.1005 5.18644 23.2496 6.65185 23.2496H18.8469C20.3123 23.2496 21.5202 22.1005 21.5934 20.6369L21.8737 15.0312C20.055 16.6072 17.6677 17.6544 15.1858 18.0606C14.9312 19.1711 13.9368 19.9995 12.749 19.9995C11.5612 19.9995 10.5668 19.1711 10.3122 18.0605Z" fill="#49AE44"/>
<path d="M10.3122 18.0605C7.83054 17.6542 5.44352 16.6071 3.625 15.0313L3.90528 20.6369C3.97846 22.1005 5.18644 23.2496 6.65185 23.2496H18.8469C20.3123 23.2496 21.5202 22.1005 21.5934 20.6369L21.8737 15.0312C20.055 16.6072 17.6677 17.6544 15.1858 18.0606C14.9312 19.1711 13.9368 19.9995 12.749 19.9995C11.5612 19.9995 10.5668 19.1711 10.3122 18.0605Z" fill="black" fill-opacity="0.2"/>
</svg>
