<svg width="20" height="20" viewBox="0 0 20 20" fill="none" xmlns="http://www.w3.org/2000/svg">
<path d="M10 1.54166C12.3452 1.54175 14.5745 2.97033 15.5039 5.20474C16.3633 7.27142 15.9099 9.0251 14.9209 10.5661C14.0899 11.8607 12.8641 13.0254 11.7227 14.1071L11.7217 14.1081C11.5217 14.2976 11.3239 14.4845 11.1338 14.6676C10.8295 14.9607 10.4232 15.1246 10 15.1247C9.57674 15.1247 9.16961 14.9608 8.86523 14.6676L8.24121 14.071C7.11175 12.9967 5.90247 11.8436 5.08008 10.5651C4.08992 9.02577 3.63556 7.27401 4.49609 5.20474C5.42553 2.97033 7.65483 1.54166 10 1.54166ZM9.99902 4.49966C8.34238 4.49984 6.9992 5.84308 6.99902 7.49966C6.99902 9.15645 8.34228 10.4995 9.99902 10.4997C11.6559 10.4997 12.999 9.15656 12.999 7.49966C12.9988 5.84297 11.6558 4.49966 9.99902 4.49966Z" fill="#49AE44"/>
<path d="M10 1.54166C12.3452 1.54175 14.5745 2.97033 15.5039 5.20474C16.3633 7.27142 15.9099 9.0251 14.9209 10.5661C14.0899 11.8607 12.8641 13.0254 11.7227 14.1071L11.7217 14.1081C11.5217 14.2976 11.3239 14.4845 11.1338 14.6676C10.8295 14.9607 10.4232 15.1246 10 15.1247C9.57674 15.1247 9.16961 14.9608 8.86523 14.6676L8.24121 14.071C7.11175 12.9967 5.90247 11.8436 5.08008 10.5651C4.08992 9.02577 3.63556 7.27401 4.49609 5.20474C5.42553 2.97033 7.65483 1.54166 10 1.54166ZM9.99902 4.49966C8.34238 4.49984 6.9992 5.84308 6.99902 7.49966C6.99902 9.15645 8.34228 10.4995 9.99902 10.4997C11.6559 10.4997 12.999 9.15656 12.999 7.49966C12.9988 5.84297 11.6558 4.49966 9.99902 4.49966Z" fill="black" fill-opacity="0.2"/>
<path d="M10 1.54166C12.3452 1.54175 14.5745 2.97033 15.5039 5.20474C16.3633 7.27142 15.9099 9.0251 14.9209 10.5661C14.0899 11.8607 12.8641 13.0254 11.7227 14.1071L11.7217 14.1081C11.5217 14.2976 11.3239 14.4845 11.1338 14.6676C10.8295 14.9607 10.4232 15.1246 10 15.1247C9.57674 15.1247 9.16961 14.9608 8.86523 14.6676L8.24121 14.071C7.11175 12.9967 5.90247 11.8436 5.08008 10.5651C4.08992 9.02577 3.63556 7.27401 4.49609 5.20474C5.42553 2.97033 7.65483 1.54166 10 1.54166ZM9.99902 4.49966C8.34238 4.49984 6.9992 5.84308 6.99902 7.49966C6.99902 9.15645 8.34228 10.4995 9.99902 10.4997C11.6559 10.4997 12.999 9.15656 12.999 7.49966C12.9988 5.84297 11.6558 4.49966 9.99902 4.49966Z" stroke="#49AE44"/>
<path d="M10 1.54166C12.3452 1.54175 14.5745 2.97033 15.5039 5.20474C16.3633 7.27142 15.9099 9.0251 14.9209 10.5661C14.0899 11.8607 12.8641 13.0254 11.7227 14.1071L11.7217 14.1081C11.5217 14.2976 11.3239 14.4845 11.1338 14.6676C10.8295 14.9607 10.4232 15.1246 10 15.1247C9.57674 15.1247 9.16961 14.9608 8.86523 14.6676L8.24121 14.071C7.11175 12.9967 5.90247 11.8436 5.08008 10.5651C4.08992 9.02577 3.63556 7.27401 4.49609 5.20474C5.42553 2.97033 7.65483 1.54166 10 1.54166ZM9.99902 4.49966C8.34238 4.49984 6.9992 5.84308 6.99902 7.49966C6.99902 9.15645 8.34228 10.4995 9.99902 10.4997C11.6559 10.4997 12.999 9.15656 12.999 7.49966C12.9988 5.84297 11.6558 4.49966 9.99902 4.49966Z" stroke="black" stroke-opacity="0.2"/>
<path d="M4.99935 15.625C5.43368 15.625 5.79041 15.9573 5.82919 16.3815C5.84361 16.3973 5.86817 16.4211 5.90808 16.4526C6.05672 16.5697 6.32346 16.7117 6.72734 16.8462C7.52639 17.1127 8.68327 17.2917 9.99935 17.2917C11.3154 17.2917 12.4723 17.1127 13.2713 16.8462C13.6753 16.7117 13.9419 16.5697 14.0906 16.4526C14.1305 16.4211 14.1551 16.3973 14.1695 16.3815C14.2083 15.9573 14.565 15.625 14.9993 15.625C15.4596 15.625 15.8327 15.9981 15.8327 16.4583C15.8327 17.0533 15.4703 17.4873 15.1223 17.7616C14.7648 18.0433 14.2993 18.2604 13.7984 18.4274C12.7878 18.7643 11.4447 18.9583 9.99935 18.9583C8.55402 18.9583 7.21088 18.7643 6.20029 18.4274C5.69935 18.2604 5.23385 18.0433 4.87647 17.7616C4.52847 17.4873 4.16602 17.0533 4.16602 16.4583C4.16602 15.9981 4.53912 15.625 4.99935 15.625Z" fill="#49AE44"/>
<path d="M4.99935 15.625C5.43368 15.625 5.79041 15.9573 5.82919 16.3815C5.84361 16.3973 5.86817 16.4211 5.90808 16.4526C6.05672 16.5697 6.32346 16.7117 6.72734 16.8462C7.52639 17.1127 8.68327 17.2917 9.99935 17.2917C11.3154 17.2917 12.4723 17.1127 13.2713 16.8462C13.6753 16.7117 13.9419 16.5697 14.0906 16.4526C14.1305 16.4211 14.1551 16.3973 14.1695 16.3815C14.2083 15.9573 14.565 15.625 14.9993 15.625C15.4596 15.625 15.8327 15.9981 15.8327 16.4583C15.8327 17.0533 15.4703 17.4873 15.1223 17.7616C14.7648 18.0433 14.2993 18.2604 13.7984 18.4274C12.7878 18.7643 11.4447 18.9583 9.99935 18.9583C8.55402 18.9583 7.21088 18.7643 6.20029 18.4274C5.69935 18.2604 5.23385 18.0433 4.87647 17.7616C4.52847 17.4873 4.16602 17.0533 4.16602 16.4583C4.16602 15.9981 4.53912 15.625 4.99935 15.625Z" fill="black" fill-opacity="0.2"/>
</svg>
