<svg width="16" height="16" viewBox="0 0 16 16" fill="none" xmlns="http://www.w3.org/2000/svg">
<path d="M12.0003 12C12.8301 12.2829 13.3337 12.6546 13.3337 13.0616C13.3337 13.9481 10.9458 14.6667 8.00033 14.6667C5.05481 14.6667 2.66699 13.9481 2.66699 13.0616C2.66699 12.6546 3.17051 12.2829 4.00033 12" stroke="#39A432" stroke-linecap="round"/>
<path d="M10 6.33325C10 7.43782 9.10457 8.33325 8 8.33325C6.89543 8.33325 6 7.43782 6 6.33325C6 5.22868 6.89543 4.33325 8 4.33325C9.10457 4.33325 10 5.22868 10 6.33325Z" stroke="#39A432"/>
<path d="M8 1.33325C10.7059 1.33325 13 3.61861 13 6.39119C13 9.20792 10.6685 11.1846 8.515 12.5287C8.35806 12.6191 8.18058 12.6666 8 12.6666C7.81942 12.6666 7.64194 12.6191 7.485 12.5287C5.3355 11.1715 3 9.21766 3 6.39119C3 3.61861 5.29413 1.33325 8 1.33325Z" stroke="#39A432"/>
</svg>
