<svg width="16" height="16" viewBox="0 0 16 16" fill="none" xmlns="http://www.w3.org/2000/svg">
<g clip-path="url(#clip0_16631_2558)">
<path d="M2.71649 7.62597C2.76086 7.66972 2.8943 7.80097 3.09642 7.80097H3.10214C3.30427 7.80097 3.43774 7.66972 3.48208 7.62597L3.48995 7.61797C4.71183 6.33375 6.98633 3.94338 5.7378 1.56772L5.73649 1.56525C5.22817 0.61675 4.21964 0.0170313 3.10452 0H3.09408C1.97895 0.0170313 0.970423 0.61675 0.460767 1.56772C-0.787765 3.94338 1.48667 6.33375 2.70861 7.61797L2.71649 7.62597ZM1.06802 1.89C1.4577 1.16287 2.2357 0.7025 3.09927 0.687563C3.9623 0.702469 4.73989 1.16237 5.12986 1.88872C6.04677 3.63559 4.58999 5.45222 3.09927 7.03084C1.60817 5.45181 0.150923 3.63497 1.06802 1.89Z" fill="#49AE44"/>
<path d="M2.71649 7.62597C2.76086 7.66972 2.8943 7.80097 3.09642 7.80097H3.10214C3.30427 7.80097 3.43774 7.66972 3.48208 7.62597L3.48995 7.61797C4.71183 6.33375 6.98633 3.94338 5.7378 1.56772L5.73649 1.56525C5.22817 0.61675 4.21964 0.0170313 3.10452 0H3.09408C1.97895 0.0170313 0.970423 0.61675 0.460767 1.56772C-0.787765 3.94338 1.48667 6.33375 2.70861 7.61797L2.71649 7.62597ZM1.06802 1.89C1.4577 1.16287 2.2357 0.7025 3.09927 0.687563C3.9623 0.702469 4.73989 1.16237 5.12986 1.88872C6.04677 3.63559 4.58999 5.45222 3.09927 7.03084C1.60817 5.45181 0.150923 3.63497 1.06802 1.89Z" fill="black" fill-opacity="0.2"/>
<path d="M4.76528 3.03349C4.76528 2.70402 4.66757 2.38194 4.48452 2.108C4.30147 1.83406 4.0413 1.62055 3.7369 1.49447C3.4325 1.36839 3.09756 1.33541 2.77442 1.39969C2.45128 1.46397 2.15445 1.62264 1.92149 1.85561C1.68852 2.08859 1.52987 2.38542 1.4656 2.70856C1.40133 3.0317 1.43432 3.36665 1.56041 3.67104C1.6865 3.97543 1.90002 4.2356 2.17397 4.41864C2.44792 4.60168 2.77 4.69937 3.09947 4.69936C3.54113 4.69887 3.96456 4.52319 4.27685 4.21089C4.58915 3.89858 4.7648 3.47515 4.76528 3.03349ZM2.12106 3.03349C2.12107 2.83999 2.17845 2.65083 2.28596 2.48994C2.39347 2.32906 2.54627 2.20366 2.72504 2.12961C2.90382 2.05557 3.10053 2.03619 3.29032 2.07395C3.4801 2.1117 3.65443 2.20488 3.79125 2.3417C3.92808 2.47853 4.02126 2.65286 4.05901 2.84264C4.09676 3.03242 4.07739 3.22914 4.00334 3.40791C3.9293 3.58669 3.8039 3.73949 3.64301 3.847C3.48213 3.9545 3.29297 4.01189 3.09947 4.0119C2.84007 4.01161 2.59137 3.90844 2.40794 3.72502C2.22452 3.54159 2.12134 3.29289 2.12106 3.03349ZM12.5182 12.9782C12.5626 13.0219 12.696 13.1532 12.8981 13.1532H12.9039C13.1059 13.1532 13.2394 13.0219 13.2838 12.9782L13.2917 12.9701C14.5135 11.6857 16.788 9.29546 15.5395 6.91983L15.5382 6.91736C15.0299 5.96893 14.0213 5.36918 12.9062 5.35224H12.8958C11.7806 5.36918 10.7721 5.96893 10.2625 6.91983C9.01394 9.29552 11.2884 11.6859 12.5103 12.9701L12.5182 12.9782ZM10.8697 7.2423C11.2594 6.51521 12.0374 6.0548 12.901 6.0399C13.764 6.0548 14.5416 6.51471 14.9315 7.24102C15.8485 8.9879 14.3917 10.8045 12.901 12.3831C11.4099 10.8042 9.95266 8.98733 10.8697 7.2423Z" fill="#49AE44"/>
<path d="M4.76528 3.03349C4.76528 2.70402 4.66757 2.38194 4.48452 2.108C4.30147 1.83406 4.0413 1.62055 3.7369 1.49447C3.4325 1.36839 3.09756 1.33541 2.77442 1.39969C2.45128 1.46397 2.15445 1.62264 1.92149 1.85561C1.68852 2.08859 1.52987 2.38542 1.4656 2.70856C1.40133 3.0317 1.43432 3.36665 1.56041 3.67104C1.6865 3.97543 1.90002 4.2356 2.17397 4.41864C2.44792 4.60168 2.77 4.69937 3.09947 4.69936C3.54113 4.69887 3.96456 4.52319 4.27685 4.21089C4.58915 3.89858 4.7648 3.47515 4.76528 3.03349ZM2.12106 3.03349C2.12107 2.83999 2.17845 2.65083 2.28596 2.48994C2.39347 2.32906 2.54627 2.20366 2.72504 2.12961C2.90382 2.05557 3.10053 2.03619 3.29032 2.07395C3.4801 2.1117 3.65443 2.20488 3.79125 2.3417C3.92808 2.47853 4.02126 2.65286 4.05901 2.84264C4.09676 3.03242 4.07739 3.22914 4.00334 3.40791C3.9293 3.58669 3.8039 3.73949 3.64301 3.847C3.48213 3.9545 3.29297 4.01189 3.09947 4.0119C2.84007 4.01161 2.59137 3.90844 2.40794 3.72502C2.22452 3.54159 2.12134 3.29289 2.12106 3.03349ZM12.5182 12.9782C12.5626 13.0219 12.696 13.1532 12.8981 13.1532H12.9039C13.1059 13.1532 13.2394 13.0219 13.2838 12.9782L13.2917 12.9701C14.5135 11.6857 16.788 9.29546 15.5395 6.91983L15.5382 6.91736C15.0299 5.96893 14.0213 5.36918 12.9062 5.35224H12.8958C11.7806 5.36918 10.7721 5.96893 10.2625 6.91983C9.01394 9.29552 11.2884 11.6859 12.5103 12.9701L12.5182 12.9782ZM10.8697 7.2423C11.2594 6.51521 12.0374 6.0548 12.901 6.0399C13.764 6.0548 14.5416 6.51471 14.9315 7.24102C15.8485 8.9879 14.3917 10.8045 12.901 12.3831C11.4099 10.8042 9.95266 8.98733 10.8697 7.2423Z" fill="black" fill-opacity="0.2"/>
<path d="M14.5658 8.38557C14.5658 8.0561 14.4681 7.73402 14.2851 7.46007C14.102 7.18613 13.8418 6.97261 13.5374 6.84653C13.233 6.72045 12.8981 6.68746 12.575 6.75174C12.2518 6.81602 11.955 6.97468 11.722 7.20765C11.489 7.44063 11.3304 7.73746 11.2661 8.0606C11.2018 8.38374 11.2348 8.71869 11.3609 9.02308C11.487 9.32748 11.7005 9.58764 11.9745 9.77068C12.2484 9.95373 12.5705 10.0514 12.9 10.0514C13.3416 10.0509 13.7651 9.87524 14.0773 9.56294C14.3896 9.25064 14.5653 8.82722 14.5658 8.38557ZM11.9216 8.38557C11.9216 8.19207 11.979 8.00291 12.0865 7.84202C12.194 7.68112 12.3468 7.55572 12.5256 7.48167C12.7044 7.40762 12.9011 7.38824 13.0909 7.426C13.2806 7.46375 13.455 7.55693 13.5918 7.69376C13.7286 7.83058 13.8218 8.00491 13.8596 8.1947C13.8973 8.38449 13.8779 8.5812 13.8039 8.75998C13.7298 8.93875 13.6044 9.09156 13.4435 9.19906C13.2827 9.30657 13.0935 9.36395 12.9 9.36395C12.6406 9.36365 12.3919 9.26047 12.2085 9.07706C12.0251 8.89364 11.9219 8.64496 11.9216 8.38557ZM14.0338 14.3042C13.9365 14.0682 13.7679 13.8685 13.5517 13.7329C13.3354 13.5973 13.0822 13.5326 12.8274 13.5478C12.5726 13.563 12.3289 13.6573 12.1302 13.8177C11.9316 13.978 11.788 14.1964 11.7195 14.4423H5.04871C4.87398 14.4411 4.70683 14.3708 4.5837 14.2469C4.46057 14.1229 4.39147 13.9553 4.39147 13.7805C4.39147 13.6058 4.46057 13.4382 4.5837 13.3142C4.70683 13.1902 4.87398 13.12 5.04871 13.1188H7.06746C7.59939 13.1188 8.10954 12.9074 8.48567 12.5313C8.8618 12.1552 9.07311 11.645 9.07311 11.1131C9.07311 10.5812 8.8618 10.071 8.48567 9.69489C8.10954 9.31876 7.59939 9.10745 7.06746 9.10745H4.28427C4.20926 8.82135 4.03357 8.57192 3.78945 8.40495C3.54533 8.23797 3.24918 8.16466 2.95535 8.19847C2.66153 8.23228 2.38977 8.37095 2.18996 8.58901C1.99015 8.80707 1.87571 9.08989 1.86764 9.38554C1.85958 9.6812 1.95844 9.96983 2.14606 10.1985C2.33369 10.4271 2.59749 10.5804 2.88904 10.6301C3.18058 10.6799 3.48029 10.6229 3.73315 10.4694C3.986 10.316 4.17503 10.0765 4.26552 9.79495H7.06749C7.24113 9.7941 7.41323 9.82757 7.5739 9.89344C7.73457 9.9593 7.88065 10.0563 8.00373 10.1788C8.12682 10.3012 8.22449 10.4468 8.29114 10.6072C8.35779 10.7675 8.39209 10.9395 8.39209 11.1131C8.39209 11.2868 8.35779 11.4587 8.29114 11.619C8.22449 11.7794 8.12682 11.925 8.00373 12.0475C7.88065 12.17 7.73457 12.2669 7.5739 12.3328C7.41323 12.3987 7.24113 12.4321 7.06749 12.4313H5.04874C4.6909 12.4313 4.34772 12.5734 4.0947 12.8265C3.84167 13.0795 3.69952 13.4227 3.69952 13.7805C3.69952 14.1383 3.84167 14.4815 4.0947 14.7346C4.34772 14.9876 4.6909 15.1297 5.04874 15.1297H11.7266C11.738 15.1674 11.7513 15.2044 11.7662 15.2408C11.8914 15.5401 12.13 15.7776 12.4298 15.9014C12.7297 16.0251 13.0664 16.0251 13.3662 15.9013C13.666 15.7775 13.9046 15.5399 14.0297 15.2406C14.1548 14.9413 14.1563 14.6046 14.0338 14.3043V14.3042ZM3.3043 9.9186C3.20573 9.95932 3.0973 9.9699 2.99272 9.949C2.88814 9.92809 2.7921 9.87665 2.71676 9.80116C2.64142 9.72567 2.59016 9.62954 2.56945 9.52492C2.54875 9.4203 2.55953 9.31189 2.60044 9.2134C2.64135 9.1149 2.71055 9.03076 2.79929 8.97159C2.88802 8.91243 2.99231 8.88091 3.09896 8.88102C3.20561 8.88113 3.30983 8.91286 3.39845 8.97221C3.48706 9.03155 3.55609 9.11584 3.5968 9.21441C3.65122 9.3466 3.65099 9.49497 3.59615 9.62699C3.54132 9.759 3.43636 9.86387 3.3043 9.9186ZM13.1058 15.2709C13.0073 15.3116 12.8988 15.3222 12.7943 15.3012C12.6897 15.2803 12.5937 15.2289 12.5184 15.1534C12.443 15.0779 12.3918 14.9818 12.3711 14.8772C12.3504 14.7726 12.3612 14.6642 12.4021 14.5657C12.443 14.4672 12.5122 14.3831 12.6009 14.3239C12.6896 14.2647 12.7939 14.2332 12.9006 14.2333C13.0072 14.2334 13.1114 14.2652 13.2 14.3245C13.2886 14.3839 13.3577 14.4681 13.3984 14.5667C13.4259 14.6321 13.4401 14.7023 13.4403 14.7732C13.4404 14.8442 13.4265 14.9144 13.3993 14.9799C13.3721 15.0454 13.3321 15.1049 13.2817 15.1548C13.2314 15.2048 13.1716 15.2442 13.1058 15.2709Z" fill="#49AE44"/>
<path d="M14.5658 8.38557C14.5658 8.0561 14.4681 7.73402 14.2851 7.46007C14.102 7.18613 13.8418 6.97261 13.5374 6.84653C13.233 6.72045 12.8981 6.68746 12.575 6.75174C12.2518 6.81602 11.955 6.97468 11.722 7.20765C11.489 7.44063 11.3304 7.73746 11.2661 8.0606C11.2018 8.38374 11.2348 8.71869 11.3609 9.02308C11.487 9.32748 11.7005 9.58764 11.9745 9.77068C12.2484 9.95373 12.5705 10.0514 12.9 10.0514C13.3416 10.0509 13.7651 9.87524 14.0773 9.56294C14.3896 9.25064 14.5653 8.82722 14.5658 8.38557ZM11.9216 8.38557C11.9216 8.19207 11.979 8.00291 12.0865 7.84202C12.194 7.68112 12.3468 7.55572 12.5256 7.48167C12.7044 7.40762 12.9011 7.38824 13.0909 7.426C13.2806 7.46375 13.455 7.55693 13.5918 7.69376C13.7286 7.83058 13.8218 8.00491 13.8596 8.1947C13.8973 8.38449 13.8779 8.5812 13.8039 8.75998C13.7298 8.93875 13.6044 9.09156 13.4435 9.19906C13.2827 9.30657 13.0935 9.36395 12.9 9.36395C12.6406 9.36365 12.3919 9.26047 12.2085 9.07706C12.0251 8.89364 11.9219 8.64496 11.9216 8.38557ZM14.0338 14.3042C13.9365 14.0682 13.7679 13.8685 13.5517 13.7329C13.3354 13.5973 13.0822 13.5326 12.8274 13.5478C12.5726 13.563 12.3289 13.6573 12.1302 13.8177C11.9316 13.978 11.788 14.1964 11.7195 14.4423H5.04871C4.87398 14.4411 4.70683 14.3708 4.5837 14.2469C4.46057 14.1229 4.39147 13.9553 4.39147 13.7805C4.39147 13.6058 4.46057 13.4382 4.5837 13.3142C4.70683 13.1902 4.87398 13.12 5.04871 13.1188H7.06746C7.59939 13.1188 8.10954 12.9074 8.48567 12.5313C8.8618 12.1552 9.07311 11.645 9.07311 11.1131C9.07311 10.5812 8.8618 10.071 8.48567 9.69489C8.10954 9.31876 7.59939 9.10745 7.06746 9.10745H4.28427C4.20926 8.82135 4.03357 8.57192 3.78945 8.40495C3.54533 8.23797 3.24918 8.16466 2.95535 8.19847C2.66153 8.23228 2.38977 8.37095 2.18996 8.58901C1.99015 8.80707 1.87571 9.08989 1.86764 9.38554C1.85958 9.6812 1.95844 9.96983 2.14606 10.1985C2.33369 10.4271 2.59749 10.5804 2.88904 10.6301C3.18058 10.6799 3.48029 10.6229 3.73315 10.4694C3.986 10.316 4.17503 10.0765 4.26552 9.79495H7.06749C7.24113 9.7941 7.41323 9.82757 7.5739 9.89344C7.73457 9.9593 7.88065 10.0563 8.00373 10.1788C8.12682 10.3012 8.22449 10.4468 8.29114 10.6072C8.35779 10.7675 8.39209 10.9395 8.39209 11.1131C8.39209 11.2868 8.35779 11.4587 8.29114 11.619C8.22449 11.7794 8.12682 11.925 8.00373 12.0475C7.88065 12.17 7.73457 12.2669 7.5739 12.3328C7.41323 12.3987 7.24113 12.4321 7.06749 12.4313H5.04874C4.6909 12.4313 4.34772 12.5734 4.0947 12.8265C3.84167 13.0795 3.69952 13.4227 3.69952 13.7805C3.69952 14.1383 3.84167 14.4815 4.0947 14.7346C4.34772 14.9876 4.6909 15.1297 5.04874 15.1297H11.7266C11.738 15.1674 11.7513 15.2044 11.7662 15.2408C11.8914 15.5401 12.13 15.7776 12.4298 15.9014C12.7297 16.0251 13.0664 16.0251 13.3662 15.9013C13.666 15.7775 13.9046 15.5399 14.0297 15.2406C14.1548 14.9413 14.1563 14.6046 14.0338 14.3043V14.3042ZM3.3043 9.9186C3.20573 9.95932 3.0973 9.9699 2.99272 9.949C2.88814 9.92809 2.7921 9.87665 2.71676 9.80116C2.64142 9.72567 2.59016 9.62954 2.56945 9.52492C2.54875 9.4203 2.55953 9.31189 2.60044 9.2134C2.64135 9.1149 2.71055 9.03076 2.79929 8.97159C2.88802 8.91243 2.99231 8.88091 3.09896 8.88102C3.20561 8.88113 3.30983 8.91286 3.39845 8.97221C3.48706 9.03155 3.55609 9.11584 3.5968 9.21441C3.65122 9.3466 3.65099 9.49497 3.59615 9.62699C3.54132 9.759 3.43636 9.86387 3.3043 9.9186ZM13.1058 15.2709C13.0073 15.3116 12.8988 15.3222 12.7943 15.3012C12.6897 15.2803 12.5937 15.2289 12.5184 15.1534C12.443 15.0779 12.3918 14.9818 12.3711 14.8772C12.3504 14.7726 12.3612 14.6642 12.4021 14.5657C12.443 14.4672 12.5122 14.3831 12.6009 14.3239C12.6896 14.2647 12.7939 14.2332 12.9006 14.2333C13.0072 14.2334 13.1114 14.2652 13.2 14.3245C13.2886 14.3839 13.3577 14.4681 13.3984 14.5667C13.4259 14.6321 13.4401 14.7023 13.4403 14.7732C13.4404 14.8442 13.4265 14.9144 13.3993 14.9799C13.3721 15.0454 13.3321 15.1049 13.2817 15.1548C13.2314 15.2048 13.1716 15.2442 13.1058 15.2709Z" fill="black" fill-opacity="0.2"/>
</g>
<defs>
<clipPath id="clip0_16631_2558">
<rect width="16" height="16" fill="white"/>
</clipPath>
</defs>
</svg>
