<svg width="18" height="19" viewBox="0 0 18 19" fill="none" xmlns="http://www.w3.org/2000/svg">
<path d="M11.625 8.75C11.625 10.1997 10.4497 11.375 9 11.375C7.55025 11.375 6.375 10.1997 6.375 8.75C6.375 7.30025 7.55025 6.125 9 6.125C10.4497 6.125 11.625 7.30025 11.625 8.75Z" stroke="#637381" stroke-width="1.125"/>
<path d="M9 2C12.6529 2 15.75 5.02473 15.75 8.69432C15.75 12.4224 12.6025 15.0385 9.69525 16.8175C9.48338 16.9371 9.24379 17 9 17C8.75621 17 8.51662 16.9371 8.30475 16.8175C5.40292 15.0212 2.25 12.4352 2.25 8.69432C2.25 5.02473 5.34708 2 9 2Z" stroke="#637381" stroke-width="1.125"/>
</svg>
