<svg width="24" height="24" viewBox="0 0 24 24" fill="none" xmlns="http://www.w3.org/2000/svg">
<path fill-rule="evenodd" clip-rule="evenodd" d="M11.3067 4.742C11.4832 4.21252 12.059 3.93 12.5857 4.11437L18.6607 6.24061C19.4629 6.52137 20 7.27843 20 8.12832V15.8715C20 16.7213 19.4629 17.4784 18.6607 17.7592L12.5857 19.8854C12.059 20.0698 11.4832 19.7873 11.3067 19.2578L10.9487 18.1837C10.774 17.6597 10.2077 17.3766 9.6838 17.5512C9.1598 17.7259 8.8767 18.2922 9.0513 18.8161L9.4094 19.8902C9.9388 21.4787 11.6661 22.3263 13.2465 21.7731L19.3214 19.6469C20.9258 19.0854 22 17.5712 22 15.8715V8.12832C22 6.42855 20.9258 4.91441 19.3214 4.35289L13.2464 2.22666C11.6661 1.67353 9.9388 2.52111 9.4094 4.10955L9.0513 5.18365C8.8767 5.7076 9.1598 6.27392 9.6838 6.44856C10.2077 6.62321 10.774 6.34005 10.9487 5.81611L11.3067 4.742Z" fill="#FF4842"/>
<path fill-rule="evenodd" clip-rule="evenodd" d="M5.8827 8.57688C5.509 8.4221 5.0789 8.50765 4.7929 8.79365L2.2929 11.2937C1.9024 11.6842 1.9024 12.3174 2.2929 12.7079L4.7929 15.2079C5.0789 15.4939 5.509 15.5794 5.8827 15.4247C6.2564 15.2699 6.5 14.9052 6.5 14.5008V13.0008H14C14.5523 13.0008 15 12.5531 15 12.0008C15 11.4485 14.5523 11.0008 14 11.0008H6.5V9.50076C6.5 9.09629 6.2564 8.73166 5.8827 8.57688Z" fill="#FF4842"/>
</svg>
