<svg width="16" height="16" viewBox="0 0 16 16" fill="none" xmlns="http://www.w3.org/2000/svg">
<path d="M1.33203 4L5.94071 6.61131C7.63976 7.574 8.35763 7.574 10.0567 6.61131L14.6654 4" stroke="#637381" stroke-linejoin="round"/>
<path d="M1.34254 8.98341C1.38612 11.0271 1.40792 12.0489 2.162 12.8059C2.91608 13.5629 3.96558 13.5892 6.06458 13.6419C7.35823 13.6745 8.63916 13.6745 9.93283 13.6419C12.0318 13.5892 13.0813 13.5629 13.8354 12.8059C14.5895 12.0489 14.6113 11.0271 14.6548 8.98341C14.6689 8.32628 14.6689 7.67308 14.6548 7.01594C14.6113 4.97225 14.5895 3.9504 13.8354 3.19345C13.0813 2.4365 12.0318 2.41013 9.93283 2.35739C8.63916 2.32488 7.35823 2.32488 6.06458 2.35738C3.96558 2.41012 2.91608 2.43648 2.162 3.19344C1.40791 3.9504 1.38612 4.97224 1.34254 7.01594C1.32852 7.67308 1.32853 8.32628 1.34254 8.98341Z" stroke="#637381" stroke-linejoin="round"/>
</svg>
