<svg width="44" height="44" viewBox="0 0 44 44" fill="none" xmlns="http://www.w3.org/2000/svg">
<rect width="44" height="44" rx="22" fill="#49AE44"/>
<path fill-rule="evenodd" clip-rule="evenodd" d="M12 22.015C12 16.7471 16.21 12 22.02 12C27.7 12 32 16.657 32 21.985C32 28.1642 26.96 32 22 32C20.36 32 18.54 31.5593 17.08 30.698C16.57 30.3876 16.14 30.1572 15.59 30.3375L13.57 30.9384C13.06 31.0986 12.6 30.698 12.75 30.1572L13.42 27.9139C13.53 27.6034 13.51 27.2729 13.35 27.0125C12.49 25.4301 12 23.6975 12 22.015ZM20.7 22.015C20.7 22.7261 21.27 23.2969 21.98 23.307C22.69 23.307 23.26 22.7261 23.26 22.025C23.26 21.314 22.69 20.7431 21.98 20.7431C21.28 20.7331 20.7 21.314 20.7 22.015ZM25.31 22.025C25.31 22.7261 25.88 23.307 26.59 23.307C27.3 23.307 27.87 22.7261 27.87 22.025C27.87 21.314 27.3 20.7431 26.59 20.7431C25.88 20.7431 25.31 21.314 25.31 22.025ZM17.37 23.307C16.67 23.307 16.09 22.7261 16.09 22.025C16.09 21.314 16.66 20.7431 17.37 20.7431C18.08 20.7431 18.65 21.314 18.65 22.025C18.65 22.7261 18.08 23.2969 17.37 23.307Z" fill="white"/>
</svg>
