<svg width="20" height="20" viewBox="0 0 20 20" fill="none" xmlns="http://www.w3.org/2000/svg">
<g clip-path="url(#clip0_16033_3169)">
<path d="M18.2509 15.6278L18.062 15.4611C17.5263 14.9835 17.0572 14.436 16.6675 13.8333C16.2417 13.0016 15.9867 12.093 15.9175 11.1611V8.41667C15.9212 6.95312 15.3903 5.5386 14.4246 4.43888C13.4589 3.33915 12.1248 2.62993 10.6731 2.44445V1.72778C10.6731 1.53108 10.595 1.34243 10.4559 1.20334C10.3168 1.06425 10.1281 0.986115 9.93142 0.986115C9.73472 0.986115 9.54608 1.06425 9.40699 1.20334C9.2679 1.34243 9.18976 1.53108 9.18976 1.72778V2.45556C7.75101 2.65441 6.43307 3.36792 5.48005 4.46395C4.52703 5.55998 4.0035 6.96425 4.00642 8.41667V11.1611C3.93729 12.093 3.68228 13.0016 3.25642 13.8333C2.87358 14.4346 2.41209 14.9821 1.8842 15.4611L1.69531 15.6278V17.1944H18.2509V15.6278Z" fill="#49AE44"/>
<path d="M18.2509 15.6278L18.062 15.4611C17.5263 14.9835 17.0572 14.436 16.6675 13.8333C16.2417 13.0016 15.9867 12.093 15.9175 11.1611V8.41667C15.9212 6.95312 15.3903 5.5386 14.4246 4.43888C13.4589 3.33915 12.1248 2.62993 10.6731 2.44445V1.72778C10.6731 1.53108 10.595 1.34243 10.4559 1.20334C10.3168 1.06425 10.1281 0.986115 9.93142 0.986115C9.73472 0.986115 9.54608 1.06425 9.40699 1.20334C9.2679 1.34243 9.18976 1.53108 9.18976 1.72778V2.45556C7.75101 2.65441 6.43307 3.36792 5.48005 4.46395C4.52703 5.55998 4.0035 6.96425 4.00642 8.41667V11.1611C3.93729 12.093 3.68228 13.0016 3.25642 13.8333C2.87358 14.4346 2.41209 14.9821 1.8842 15.4611L1.69531 15.6278V17.1944H18.2509V15.6278Z" fill="black" fill-opacity="0.2"/>
<path d="M8.51172 17.7778C8.56044 18.1299 8.73494 18.4526 9.00299 18.6861C9.27104 18.9196 9.61454 19.0482 9.97005 19.0482C10.3256 19.0482 10.6691 18.9196 10.9371 18.6861C11.2052 18.4526 11.3797 18.1299 11.4284 17.7778H8.51172Z" fill="#49AE44"/>
<path d="M8.51172 17.7778C8.56044 18.1299 8.73494 18.4526 9.00299 18.6861C9.27104 18.9196 9.61454 19.0482 9.97005 19.0482C10.3256 19.0482 10.6691 18.9196 10.9371 18.6861C11.2052 18.4526 11.3797 18.1299 11.4284 17.7778H8.51172Z" fill="black" fill-opacity="0.2"/>
</g>
<defs>
<clipPath id="clip0_16033_3169">
<rect width="20" height="20" fill="white"/>
</clipPath>
</defs>
</svg>
