<svg width="18" height="18" viewBox="0 0 18 18" fill="none" xmlns="http://www.w3.org/2000/svg">
<path d="M5.84844 10.8004C5.72909 10.8004 5.61463 10.753 5.53024 10.6686C5.44585 10.5842 5.39844 10.4697 5.39844 10.3504C5.39844 10.231 5.44585 10.1166 5.53024 10.0322C5.61463 9.9478 5.72909 9.90039 5.84844 9.90039H12.1484C12.2678 9.90039 12.3822 9.9478 12.4666 10.0322C12.551 10.1166 12.5984 10.231 12.5984 10.3504C12.5984 10.4697 12.551 10.5842 12.4666 10.6686C12.3822 10.753 12.2678 10.8004 12.1484 10.8004H5.84844ZM5.84844 13.5004C5.72909 13.5004 5.61463 13.453 5.53024 13.3686C5.44585 13.2842 5.39844 13.1697 5.39844 13.0504C5.39844 12.931 5.44585 12.8166 5.53024 12.7322C5.61463 12.6478 5.72909 12.6004 5.84844 12.6004H12.1484C12.2678 12.6004 12.3822 12.6478 12.4666 12.7322C12.551 12.8166 12.5984 12.931 12.5984 13.0504C12.5984 13.1697 12.551 13.2842 12.4666 13.3686C12.3822 13.453 12.2678 13.5004 12.1484 13.5004H5.84844Z" fill="white"/>
<path fill-rule="evenodd" clip-rule="evenodd" d="M10.0657 0.900391H4.04922C3.69118 0.900391 3.3478 1.04262 3.09462 1.2958C2.84145 1.54897 2.69922 1.89235 2.69922 2.25039V15.7504C2.69922 16.1084 2.84145 16.4518 3.09462 16.705C3.3478 16.9582 3.69118 17.1004 4.04922 17.1004H13.9492C14.3073 17.1004 14.6506 16.9582 14.9038 16.705C15.157 16.4518 15.2992 16.1084 15.2992 15.7504V6.48219C15.2991 6.14422 15.1723 5.81857 14.9437 5.56959L11.0611 1.33779C10.9346 1.19986 10.7808 1.08975 10.6094 1.01445C10.438 0.939153 10.2529 0.90031 10.0657 0.900391ZM3.59922 2.25039C3.59922 2.13104 3.64663 2.01658 3.73102 1.93219C3.81541 1.8478 3.92987 1.80039 4.04922 1.80039H10.0657C10.1282 1.80032 10.1899 1.81325 10.2471 1.83835C10.3043 1.86345 10.3556 1.90018 10.3978 1.94619L14.2804 6.17799C14.3567 6.26094 14.3991 6.36949 14.3992 6.48219V15.7504C14.3992 15.8697 14.3518 15.9842 14.2674 16.0686C14.183 16.153 14.0686 16.2004 13.9492 16.2004H4.04922C3.92987 16.2004 3.81541 16.153 3.73102 16.0686C3.64663 15.9842 3.59922 15.8697 3.59922 15.7504V2.25039Z" fill="white"/>
<path d="M9.9 6.30039H14.85C14.9693 6.30039 15.0838 6.3478 15.1682 6.43219C15.2526 6.51658 15.3 6.63104 15.3 6.75039C15.3 6.86974 15.2526 6.9842 15.1682 7.06859C15.0838 7.15298 14.9693 7.20039 14.85 7.20039H9.45C9.33065 7.20039 9.21619 7.15298 9.1318 7.06859C9.04741 6.9842 9 6.86974 9 6.75039V1.35039C9 1.23104 9.04741 1.11658 9.1318 1.03219C9.21619 0.947801 9.33065 0.900391 9.45 0.900391C9.56935 0.900391 9.68381 0.947801 9.7682 1.03219C9.85259 1.11658 9.9 1.23104 9.9 1.35039V6.30039Z" fill="white"/>
</svg>
