<svg width="24" height="24" viewBox="0 0 24 24" fill="none" xmlns="http://www.w3.org/2000/svg">
<path fill-rule="evenodd" clip-rule="evenodd" d="M16.8847 3.08477C17.9977 1.97174 19.8023 1.97174 20.9153 3.08477C22.0284 4.1978 22.0284 6.00237 20.9153 7.1154L20.4557 7.57505L16.4251 3.54442L16.8847 3.08477ZM15.3644 4.60508L19.395 8.63571L13.266 14.7647C12.6624 15.3684 11.906 15.7966 11.0779 16.0036L8.18198 16.7276C7.9264 16.7915 7.65603 16.7166 7.46975 16.5303C7.28346 16.344 7.20857 16.0737 7.27247 15.8181L7.99644 12.9222C8.20348 12.0941 8.6317 11.3377 9.23532 10.7341L15.3644 4.60508ZM10.5139 4.25H10.4523C8.90652 4.24998 7.66032 4.24996 6.66965 4.36706C5.64437 4.48825 4.76702 4.74633 4.02728 5.3534C3.78113 5.55542 3.55542 5.78112 3.35341 6.02728C2.74633 6.76701 2.48825 7.64436 2.36706 8.66963C2.24996 9.6603 2.24998 10.9065 2.25 12.4522V13.0709C2.24997 14.8438 2.24995 16.2728 2.40106 17.3967C2.55794 18.5635 2.89356 19.546 3.67381 20.3262C4.45408 21.1065 5.4365 21.4421 6.6033 21.599C7.72715 21.75 9.15609 21.75 10.9289 21.75H11.5478C13.0935 21.75 14.3397 21.75 15.3304 21.6329C16.3557 21.5117 17.233 21.2537 17.9728 20.6466C18.2189 20.4446 18.4446 20.2189 18.6466 19.9727C19.2537 19.233 19.5118 18.3557 19.633 17.3304C19.7501 16.3397 19.7501 15.0935 19.75 13.5479V13.4861C19.75 12.9492 19.3148 12.5139 18.7778 12.5139C18.2409 12.5139 17.8056 12.9492 17.8056 13.4861C17.8056 15.108 17.804 16.239 17.702 17.1021C17.6025 17.9438 17.4192 18.4033 17.1435 18.7392C17.0223 18.8869 16.8869 19.0223 16.7392 19.1435C16.4033 19.4192 15.9439 19.6024 15.1021 19.7019C14.239 19.804 13.108 19.8056 11.4861 19.8056H11C9.13928 19.8056 7.84155 19.8035 6.8624 19.6718C5.91121 19.544 5.40751 19.3101 5.04874 18.9513C4.68998 18.5925 4.45606 18.0888 4.32817 17.1376C4.19652 16.1585 4.19445 14.8607 4.19445 13V12.5139C4.19445 10.892 4.19604 9.76104 4.29807 8.89788C4.39756 8.05618 4.58085 7.59669 4.8565 7.26081C4.9777 7.11312 5.11313 6.97769 5.26082 6.85649C5.5967 6.58084 6.05619 6.39756 6.8979 6.29806C7.76106 6.19604 8.892 6.19445 10.5139 6.19445C11.0509 6.19445 11.4862 5.75917 11.4862 5.22222C11.4862 4.68528 11.0509 4.25 10.5139 4.25Z" fill="#49AE44"/>
<path fill-rule="evenodd" clip-rule="evenodd" d="M16.8847 3.08477C17.9977 1.97174 19.8023 1.97174 20.9153 3.08477C22.0284 4.1978 22.0284 6.00237 20.9153 7.1154L20.4557 7.57505L16.4251 3.54442L16.8847 3.08477ZM15.3644 4.60508L19.395 8.63571L13.266 14.7647C12.6624 15.3684 11.906 15.7966 11.0779 16.0036L8.18198 16.7276C7.9264 16.7915 7.65603 16.7166 7.46975 16.5303C7.28346 16.344 7.20857 16.0737 7.27247 15.8181L7.99644 12.9222C8.20348 12.0941 8.6317 11.3377 9.23532 10.7341L15.3644 4.60508ZM10.5139 4.25H10.4523C8.90652 4.24998 7.66032 4.24996 6.66965 4.36706C5.64437 4.48825 4.76702 4.74633 4.02728 5.3534C3.78113 5.55542 3.55542 5.78112 3.35341 6.02728C2.74633 6.76701 2.48825 7.64436 2.36706 8.66963C2.24996 9.6603 2.24998 10.9065 2.25 12.4522V13.0709C2.24997 14.8438 2.24995 16.2728 2.40106 17.3967C2.55794 18.5635 2.89356 19.546 3.67381 20.3262C4.45408 21.1065 5.4365 21.4421 6.6033 21.599C7.72715 21.75 9.15609 21.75 10.9289 21.75H11.5478C13.0935 21.75 14.3397 21.75 15.3304 21.6329C16.3557 21.5117 17.233 21.2537 17.9728 20.6466C18.2189 20.4446 18.4446 20.2189 18.6466 19.9727C19.2537 19.233 19.5118 18.3557 19.633 17.3304C19.7501 16.3397 19.7501 15.0935 19.75 13.5479V13.4861C19.75 12.9492 19.3148 12.5139 18.7778 12.5139C18.2409 12.5139 17.8056 12.9492 17.8056 13.4861C17.8056 15.108 17.804 16.239 17.702 17.1021C17.6025 17.9438 17.4192 18.4033 17.1435 18.7392C17.0223 18.8869 16.8869 19.0223 16.7392 19.1435C16.4033 19.4192 15.9439 19.6024 15.1021 19.7019C14.239 19.804 13.108 19.8056 11.4861 19.8056H11C9.13928 19.8056 7.84155 19.8035 6.8624 19.6718C5.91121 19.544 5.40751 19.3101 5.04874 18.9513C4.68998 18.5925 4.45606 18.0888 4.32817 17.1376C4.19652 16.1585 4.19445 14.8607 4.19445 13V12.5139C4.19445 10.892 4.19604 9.76104 4.29807 8.89788C4.39756 8.05618 4.58085 7.59669 4.8565 7.26081C4.9777 7.11312 5.11313 6.97769 5.26082 6.85649C5.5967 6.58084 6.05619 6.39756 6.8979 6.29806C7.76106 6.19604 8.892 6.19445 10.5139 6.19445C11.0509 6.19445 11.4862 5.75917 11.4862 5.22222C11.4862 4.68528 11.0509 4.25 10.5139 4.25Z" fill="black" fill-opacity="0.2"/>
</svg>
