<svg width="20" height="21" viewBox="0 0 20 21" fill="none" xmlns="http://www.w3.org/2000/svg">
<g clip-path="url(#clip0_16079_4526)">
<path d="M17.07 3.42787C13.1642 -0.476782 6.83251 -0.475845 2.92787 3.43001C-0.976782 7.33587 -0.975845 13.6675 2.93001 17.5722C6.83587 21.4768 13.1675 21.4759 17.0722 17.57C18.0006 16.6413 18.737 15.5388 19.2394 14.3254C19.7418 13.1121 20.0002 11.8117 20 10.4985C19.9998 9.18528 19.741 7.88495 19.2382 6.67177C18.7355 5.45859 17.9987 4.35631 17.07 3.42787ZM15.1447 14.4299L15.1433 14.4312V14.4279L14.6367 14.9312C14.3145 15.2575 13.9136 15.4951 13.4727 15.6213C13.0319 15.7474 12.566 15.7577 12.12 15.6512C11.2061 15.4066 10.3374 15.0173 9.54666 14.4979C8.81203 14.0284 8.13127 13.4796 7.51666 12.8612C6.95117 12.2999 6.44309 11.6835 5.99998 11.0212C5.51529 10.3087 5.13165 9.53239 4.85998 8.71455C4.70727 8.24348 4.68876 7.73919 4.80651 7.25819C4.92426 6.7772 5.17362 6.33849 5.52666 5.99123L6.11998 5.39791C6.28494 5.2322 6.55298 5.23162 6.71865 5.39658L6.71998 5.39791L8.5933 7.27123C8.759 7.43619 8.75959 7.70423 8.59462 7.8699L8.5933 7.87123L7.4933 8.97123C7.17767 9.28341 7.13798 9.77951 7.39998 10.1379C7.79784 10.6839 8.23809 11.1977 8.71666 11.6746C9.25022 12.2104 9.83026 12.6979 10.45 13.1313C10.8081 13.381 11.2935 13.3389 11.6033 13.0313L12.6666 11.9513C12.8316 11.7856 13.0996 11.785 13.2653 11.9499L13.2666 11.9513L15.1433 13.8313C15.309 13.9962 15.3096 14.2642 15.1447 14.4299Z" fill="#212B36"/>
</g>
<defs>
<clipPath id="clip0_16079_4526">
<rect width="20" height="20" fill="white" transform="translate(0 0.5)"/>
</clipPath>
</defs>
</svg>
