<svg width="21" height="21" viewBox="0 0 21 21" fill="none" xmlns="http://www.w3.org/2000/svg">
<path fill-rule="evenodd" clip-rule="evenodd" d="M10.2216 1.06494C9.88748 1.06494 9.55721 1.16734 9.24697 1.28466C8.93161 1.40386 8.54027 1.578 8.06243 1.79062C7.36058 2.10291 6.42 2.46616 5.42742 2.74898C4.70256 2.95549 4.10247 3.12646 3.64477 3.30436C3.18415 3.48338 2.7304 3.71805 2.41948 4.13064C2.12011 4.52789 2.01139 4.98471 1.9626 5.44641C1.91597 5.88754 1.91599 6.43664 1.91602 7.08183V9.54249C1.91602 12.154 3.09323 14.2194 4.50153 15.7486C5.90412 17.2715 7.63293 18.3369 8.72776 18.9161C9.18316 19.1577 9.60193 19.3798 10.2216 19.3798C10.8412 19.3798 11.26 19.1577 11.7154 18.9161C12.8102 18.3369 14.539 17.2715 15.9416 15.7486C17.35 14.2194 18.5271 12.154 18.5271 9.54249V7.08185C18.5271 6.43666 18.5272 5.88755 18.4805 5.44641C18.4317 4.98471 18.323 4.52789 18.0237 4.13064C17.7128 3.71805 17.259 3.48338 16.7984 3.30436C16.3407 3.12646 15.7405 2.95549 15.0157 2.74897C14.0231 2.46616 13.0825 2.10289 12.3807 1.79061C11.9029 1.578 11.5115 1.40386 11.1962 1.28466C10.8859 1.16734 10.5557 1.06494 10.2216 1.06494ZM10.2216 10.222V2.72955C10.2035 2.72955 10.1088 2.73791 9.83321 2.84212C9.56778 2.94247 9.21996 3.09685 8.71286 3.32252C7.95401 3.66014 7.00292 4.03065 5.92159 4.33874C5.14663 4.55955 4.62203 4.70992 4.24534 4.85634C3.86316 5.00488 3.76966 5.10101 3.74495 5.1338C3.70868 5.18193 3.64959 5.28912 3.61446 5.62141C3.57823 5.9643 3.57713 6.42426 3.57713 7.12535V9.54215C3.57713 9.77359 3.58869 10.0002 3.61091 10.222H10.2216ZM10.2216 10.222V17.7144C10.397 17.7144 10.473 17.6902 11.0017 17.4105C12.0091 16.8776 13.4956 15.9494 14.7211 14.6188C15.8044 13.4424 16.6555 11.9847 16.8322 10.222H10.2216Z" fill="#49AE44"/>
<path fill-rule="evenodd" clip-rule="evenodd" d="M10.2216 1.06494C9.88748 1.06494 9.55721 1.16734 9.24697 1.28466C8.93161 1.40386 8.54027 1.578 8.06243 1.79062C7.36058 2.10291 6.42 2.46616 5.42742 2.74898C4.70256 2.95549 4.10247 3.12646 3.64477 3.30436C3.18415 3.48338 2.7304 3.71805 2.41948 4.13064C2.12011 4.52789 2.01139 4.98471 1.9626 5.44641C1.91597 5.88754 1.91599 6.43664 1.91602 7.08183V9.54249C1.91602 12.154 3.09323 14.2194 4.50153 15.7486C5.90412 17.2715 7.63293 18.3369 8.72776 18.9161C9.18316 19.1577 9.60193 19.3798 10.2216 19.3798C10.8412 19.3798 11.26 19.1577 11.7154 18.9161C12.8102 18.3369 14.539 17.2715 15.9416 15.7486C17.35 14.2194 18.5271 12.154 18.5271 9.54249V7.08185C18.5271 6.43666 18.5272 5.88755 18.4805 5.44641C18.4317 4.98471 18.323 4.52789 18.0237 4.13064C17.7128 3.71805 17.259 3.48338 16.7984 3.30436C16.3407 3.12646 15.7405 2.95549 15.0157 2.74897C14.0231 2.46616 13.0825 2.10289 12.3807 1.79061C11.9029 1.578 11.5115 1.40386 11.1962 1.28466C10.8859 1.16734 10.5557 1.06494 10.2216 1.06494ZM10.2216 10.222V2.72955C10.2035 2.72955 10.1088 2.73791 9.83321 2.84212C9.56778 2.94247 9.21996 3.09685 8.71286 3.32252C7.95401 3.66014 7.00292 4.03065 5.92159 4.33874C5.14663 4.55955 4.62203 4.70992 4.24534 4.85634C3.86316 5.00488 3.76966 5.10101 3.74495 5.1338C3.70868 5.18193 3.64959 5.28912 3.61446 5.62141C3.57823 5.9643 3.57713 6.42426 3.57713 7.12535V9.54215C3.57713 9.77359 3.58869 10.0002 3.61091 10.222H10.2216ZM10.2216 10.222V17.7144C10.397 17.7144 10.473 17.6902 11.0017 17.4105C12.0091 16.8776 13.4956 15.9494 14.7211 14.6188C15.8044 13.4424 16.6555 11.9847 16.8322 10.222H10.2216Z" fill="black" fill-opacity="0.2"/>
</svg>
