<svg width="28" height="28" viewBox="0 0 28 28" fill="none" xmlns="http://www.w3.org/2000/svg">
<path d="M11.8446 6.48156C11.904 6.6025 11.9432 6.73202 11.9608 6.86517L12.2856 11.6951L12.4469 14.1227C12.4485 14.3723 12.4877 14.6204 12.5631 14.8588C12.7579 15.3214 13.2264 15.6154 13.7361 15.5949L21.5029 15.0869C21.8392 15.0814 22.164 15.2072 22.4058 15.4366C22.6073 15.6278 22.7374 15.8779 22.7783 16.147L22.7921 16.3103C22.4707 20.7608 19.202 24.4729 14.7608 25.4311C10.3195 26.3893 5.76518 24.3651 3.5705 20.4575C2.93779 19.3222 2.5426 18.0744 2.40812 16.7873C2.35194 16.4062 2.3272 16.0214 2.33415 15.6364C2.32721 10.865 5.72506 6.73989 10.4814 5.74544C11.0539 5.6563 11.615 5.95935 11.8446 6.48156Z" fill="#49AE44"/>
<path d="M11.8446 6.48156C11.904 6.6025 11.9432 6.73202 11.9608 6.86517L12.2856 11.6951L12.4469 14.1227C12.4485 14.3723 12.4877 14.6204 12.5631 14.8588C12.7579 15.3214 13.2264 15.6154 13.7361 15.5949L21.5029 15.0869C21.8392 15.0814 22.164 15.2072 22.4058 15.4366C22.6073 15.6278 22.7374 15.8779 22.7783 16.147L22.7921 16.3103C22.4707 20.7608 19.202 24.4729 14.7608 25.4311C10.3195 26.3893 5.76518 24.3651 3.5705 20.4575C2.93779 19.3222 2.5426 18.0744 2.40812 16.7873C2.35194 16.4062 2.3272 16.0214 2.33415 15.6364C2.32721 10.865 5.72506 6.73989 10.4814 5.74544C11.0539 5.6563 11.615 5.95935 11.8446 6.48156Z" fill="black" fill-opacity="0.2"/>
<g opacity="0.4">
<path d="M15.015 2.33421C20.3349 2.46955 24.806 6.29501 25.6667 11.4476L25.6584 11.4856L25.635 11.5409L25.6382 11.6927C25.626 11.8938 25.5484 12.0872 25.4146 12.2435C25.2753 12.4063 25.0849 12.5171 24.8752 12.5601L24.7473 12.5777L15.7864 13.1583C15.4883 13.1877 15.1916 13.0916 14.9699 12.8939C14.7852 12.7291 14.6671 12.5067 14.6337 12.267L14.0323 3.31916C14.0218 3.2889 14.0218 3.2561 14.0323 3.22585C14.0405 2.9792 14.1491 2.74607 14.3337 2.57852C14.5184 2.41098 14.7637 2.32298 15.015 2.33421Z" fill="#49AE44"/>
<path d="M15.015 2.33421C20.3349 2.46955 24.806 6.29501 25.6667 11.4476L25.6584 11.4856L25.635 11.5409L25.6382 11.6927C25.626 11.8938 25.5484 12.0872 25.4146 12.2435C25.2753 12.4063 25.0849 12.5171 24.8752 12.5601L24.7473 12.5777L15.7864 13.1583C15.4883 13.1877 15.1916 13.0916 14.9699 12.8939C14.7852 12.7291 14.6671 12.5067 14.6337 12.267L14.0323 3.31916C14.0218 3.2889 14.0218 3.2561 14.0323 3.22585C14.0405 2.9792 14.1491 2.74607 14.3337 2.57852C14.5184 2.41098 14.7637 2.32298 15.015 2.33421Z" fill="black" fill-opacity="0.2"/>
</g>
</svg>
