<svg width="32" height="32" viewBox="0 0 32 32" fill="none" xmlns="http://www.w3.org/2000/svg">
<rect x="0.5" y="0.5" width="31" height="31" rx="15.5" stroke="#49AE44"/>
<rect x="0.5" y="0.5" width="31" height="31" rx="15.5" stroke="black" stroke-opacity="0.2"/>
<path d="M16.0008 18.7C16.7169 18.7 17.4036 18.4156 17.91 17.9092C18.4163 17.4029 18.7008 16.7161 18.7008 16C18.7008 15.284 18.4163 14.5972 17.91 14.0909C17.4036 13.5845 16.7169 13.3 16.0008 13.3C15.2847 13.3 14.5979 13.5845 14.0916 14.0909C13.5852 14.5972 13.3008 15.284 13.3008 16C13.3008 16.7161 13.5852 17.4029 14.0916 17.9092C14.5979 18.4156 15.2847 18.7 16.0008 18.7ZM16.4508 9.25005C16.4508 9.1307 16.4034 9.01624 16.319 8.93185C16.2346 8.84746 16.1201 8.80005 16.0008 8.80005C15.8814 8.80005 15.767 8.84746 15.6826 8.93185C15.5982 9.01624 15.5508 9.1307 15.5508 9.25005V10.618C14.2783 10.7243 13.0846 11.278 12.1817 12.1809C11.2788 13.0839 10.725 14.2776 10.6188 15.55H9.25078C9.13143 15.55 9.01697 15.5975 8.93258 15.6819C8.84819 15.7662 8.80078 15.8807 8.80078 16C8.80078 16.1194 8.84819 16.2339 8.93258 16.3182C9.01697 16.4026 9.13143 16.45 9.25078 16.45H10.6188C10.725 17.7225 11.2788 18.9162 12.1817 19.8191C13.0846 20.7221 14.2783 21.2758 15.5508 21.382V22.75C15.5508 22.8694 15.5982 22.9839 15.6826 23.0682C15.767 23.1526 15.8814 23.2 16.0008 23.2C16.1201 23.2 16.2346 23.1526 16.319 23.0682C16.4034 22.9839 16.4508 22.8694 16.4508 22.75V21.382C17.7233 21.2758 18.917 20.7221 19.8199 19.8191C20.7228 18.9162 21.2765 17.7225 21.3828 16.45H22.7508C22.8701 16.45 22.9846 16.4026 23.069 16.3182C23.1534 16.2339 23.2008 16.1194 23.2008 16C23.2008 15.8807 23.1534 15.7662 23.069 15.6819C22.9846 15.5975 22.8701 15.55 22.7508 15.55H21.3828C21.2765 14.2776 20.7228 13.0839 19.8199 12.1809C18.917 11.278 17.7233 10.7243 16.4508 10.618V9.25005ZM16.0008 20.5C14.8073 20.5 13.6627 20.0259 12.8188 19.182C11.9749 18.3381 11.5008 17.1935 11.5008 16C11.5008 14.8066 11.9749 13.662 12.8188 12.8181C13.6627 11.9742 14.8073 11.5 16.0008 11.5C17.1943 11.5 18.3388 11.9742 19.1828 12.8181C20.0267 13.662 20.5008 14.8066 20.5008 16C20.5008 17.1935 20.0267 18.3381 19.1828 19.182C18.3388 20.0259 17.1943 20.5 16.0008 20.5Z" fill="#49AE44"/>
<path d="M16.0008 18.7C16.7169 18.7 17.4036 18.4156 17.91 17.9092C18.4163 17.4029 18.7008 16.7161 18.7008 16C18.7008 15.284 18.4163 14.5972 17.91 14.0909C17.4036 13.5845 16.7169 13.3 16.0008 13.3C15.2847 13.3 14.5979 13.5845 14.0916 14.0909C13.5852 14.5972 13.3008 15.284 13.3008 16C13.3008 16.7161 13.5852 17.4029 14.0916 17.9092C14.5979 18.4156 15.2847 18.7 16.0008 18.7ZM16.4508 9.25005C16.4508 9.1307 16.4034 9.01624 16.319 8.93185C16.2346 8.84746 16.1201 8.80005 16.0008 8.80005C15.8814 8.80005 15.767 8.84746 15.6826 8.93185C15.5982 9.01624 15.5508 9.1307 15.5508 9.25005V10.618C14.2783 10.7243 13.0846 11.278 12.1817 12.1809C11.2788 13.0839 10.725 14.2776 10.6188 15.55H9.25078C9.13143 15.55 9.01697 15.5975 8.93258 15.6819C8.84819 15.7662 8.80078 15.8807 8.80078 16C8.80078 16.1194 8.84819 16.2339 8.93258 16.3182C9.01697 16.4026 9.13143 16.45 9.25078 16.45H10.6188C10.725 17.7225 11.2788 18.9162 12.1817 19.8191C13.0846 20.7221 14.2783 21.2758 15.5508 21.382V22.75C15.5508 22.8694 15.5982 22.9839 15.6826 23.0682C15.767 23.1526 15.8814 23.2 16.0008 23.2C16.1201 23.2 16.2346 23.1526 16.319 23.0682C16.4034 22.9839 16.4508 22.8694 16.4508 22.75V21.382C17.7233 21.2758 18.917 20.7221 19.8199 19.8191C20.7228 18.9162 21.2765 17.7225 21.3828 16.45H22.7508C22.8701 16.45 22.9846 16.4026 23.069 16.3182C23.1534 16.2339 23.2008 16.1194 23.2008 16C23.2008 15.8807 23.1534 15.7662 23.069 15.6819C22.9846 15.5975 22.8701 15.55 22.7508 15.55H21.3828C21.2765 14.2776 20.7228 13.0839 19.8199 12.1809C18.917 11.278 17.7233 10.7243 16.4508 10.618V9.25005ZM16.0008 20.5C14.8073 20.5 13.6627 20.0259 12.8188 19.182C11.9749 18.3381 11.5008 17.1935 11.5008 16C11.5008 14.8066 11.9749 13.662 12.8188 12.8181C13.6627 11.9742 14.8073 11.5 16.0008 11.5C17.1943 11.5 18.3388 11.9742 19.1828 12.8181C20.0267 13.662 20.5008 14.8066 20.5008 16C20.5008 17.1935 20.0267 18.3381 19.1828 19.182C18.3388 20.0259 17.1943 20.5 16.0008 20.5Z" fill="black" fill-opacity="0.2"/>
</svg>
