<svg width="24" height="25" viewBox="0 0 24 25" fill="none" xmlns="http://www.w3.org/2000/svg">
<circle cx="18" cy="5.5" r="3" stroke="#49AE44" stroke-width="1.5" stroke-linecap="round" stroke-linejoin="round"/>
<circle cx="18" cy="5.5" r="3" stroke="black" stroke-opacity="0.2" stroke-width="1.5" stroke-linecap="round" stroke-linejoin="round"/>
<circle cx="6" cy="19.5" r="3" stroke="#49AE44" stroke-width="1.5" stroke-linecap="round" stroke-linejoin="round"/>
<circle cx="6" cy="19.5" r="3" stroke="black" stroke-opacity="0.2" stroke-width="1.5" stroke-linecap="round" stroke-linejoin="round"/>
<path d="M12 5.5H8.5C6.567 5.5 5 7.067 5 9C5 10.933 6.567 12.5 8.5 12.5H15.5C17.433 12.5 19 14.067 19 16C19 17.933 17.433 19.5 15.5 19.5H12" stroke="#49AE44" stroke-width="1.5" stroke-linecap="round" stroke-linejoin="round"/>
<path d="M12 5.5H8.5C6.567 5.5 5 7.067 5 9C5 10.933 6.567 12.5 8.5 12.5H15.5C17.433 12.5 19 14.067 19 16C19 17.933 17.433 19.5 15.5 19.5H12" stroke="black" stroke-opacity="0.2" stroke-width="1.5" stroke-linecap="round" stroke-linejoin="round"/>
</svg>
