<svg width="25" height="25" viewBox="0 0 25 25" fill="none" xmlns="http://www.w3.org/2000/svg">
<path fill-rule="evenodd" clip-rule="evenodd" d="M12.2227 3.47217C10.2897 3.47217 8.72266 5.03917 8.72266 6.97217V8.53233C9.84039 8.49265 10.9881 8.47217 12.2227 8.47217C13.4573 8.47217 14.605 8.49265 15.7227 8.53233V6.97217C15.7227 5.03917 14.1557 3.47217 12.2227 3.47217ZM6.72266 6.97217V8.74929C5.15499 9.22903 3.97191 10.6083 3.74718 12.2774C3.59902 13.3778 3.47266 14.534 3.47266 15.7222C3.47266 16.9104 3.59903 18.0666 3.74718 19.167C4.01875 21.184 5.68982 22.7777 7.74788 22.8723C9.17631 22.938 10.6269 22.9722 12.2227 22.9722C13.8185 22.9722 15.2691 22.938 16.6975 22.8723C18.7555 22.7777 20.4266 21.184 20.6982 19.167C20.8463 18.0666 20.9727 16.9104 20.9727 15.7222C20.9727 14.534 20.8463 13.3778 20.6982 12.2774C20.4734 10.6083 19.2904 9.22903 17.7227 8.74929V6.97217C17.7227 3.9346 15.2603 1.47217 12.2227 1.47217C9.1851 1.47217 6.72266 3.9346 6.72266 6.97217ZM13.2227 14.7222C13.2227 14.1699 12.775 13.7222 12.2227 13.7222C11.6704 13.7222 11.2227 14.1699 11.2227 14.7222V16.7222C11.2227 17.2745 11.6704 17.7222 12.2227 17.7222C12.775 17.7222 13.2227 17.2745 13.2227 16.7222V14.7222Z" fill="#49AE44"/>
<path fill-rule="evenodd" clip-rule="evenodd" d="M12.2227 3.47217C10.2897 3.47217 8.72266 5.03917 8.72266 6.97217V8.53233C9.84039 8.49265 10.9881 8.47217 12.2227 8.47217C13.4573 8.47217 14.605 8.49265 15.7227 8.53233V6.97217C15.7227 5.03917 14.1557 3.47217 12.2227 3.47217ZM6.72266 6.97217V8.74929C5.15499 9.22903 3.97191 10.6083 3.74718 12.2774C3.59902 13.3778 3.47266 14.534 3.47266 15.7222C3.47266 16.9104 3.59903 18.0666 3.74718 19.167C4.01875 21.184 5.68982 22.7777 7.74788 22.8723C9.17631 22.938 10.6269 22.9722 12.2227 22.9722C13.8185 22.9722 15.2691 22.938 16.6975 22.8723C18.7555 22.7777 20.4266 21.184 20.6982 19.167C20.8463 18.0666 20.9727 16.9104 20.9727 15.7222C20.9727 14.534 20.8463 13.3778 20.6982 12.2774C20.4734 10.6083 19.2904 9.22903 17.7227 8.74929V6.97217C17.7227 3.9346 15.2603 1.47217 12.2227 1.47217C9.1851 1.47217 6.72266 3.9346 6.72266 6.97217ZM13.2227 14.7222C13.2227 14.1699 12.775 13.7222 12.2227 13.7222C11.6704 13.7222 11.2227 14.1699 11.2227 14.7222V16.7222C11.2227 17.2745 11.6704 17.7222 12.2227 17.7222C12.775 17.7222 13.2227 17.2745 13.2227 16.7222V14.7222Z" fill="black" fill-opacity="0.2"/>
</svg>
