<svg width="25" height="25" viewBox="0 0 25 25" fill="none" xmlns="http://www.w3.org/2000/svg">
<path d="M12.9254 3.98642C14.5728 2.75279 17.2948 2.02145 20.3054 3.86358C23.7607 5.97781 24.5945 11.5675 20.5176 16.7243C20.338 16.9514 20.0667 17.0873 19.7768 17.0952C19.487 17.1031 19.2086 16.9822 19.0169 16.7653L13.7816 10.8404L11.8565 12.0406C10.722 12.7479 9.24951 12.5887 8.29326 11.6554C7.03014 10.4225 7.15757 8.3587 8.56283 7.28978L11.915 4.74002L12.9245 3.98706L12.9254 3.98642Z" fill="#49AE44"/>
<path d="M12.9254 3.98642C14.5728 2.75279 17.2948 2.02145 20.3054 3.86358C23.7607 5.97781 24.5945 11.5675 20.5176 16.7243C20.338 16.9514 20.0667 17.0873 19.7768 17.0952C19.487 17.1031 19.2086 16.9822 19.0169 16.7653L13.7816 10.8404L11.8565 12.0406C10.722 12.7479 9.24951 12.5887 8.29326 11.6554C7.03014 10.4225 7.15757 8.3587 8.56283 7.28978L11.915 4.74002L12.9245 3.98706L12.9254 3.98642Z" fill="black" fill-opacity="0.2"/>
<g opacity="0.4">
<path fill-rule="evenodd" clip-rule="evenodd" d="M12.0769 3.98687C12.0766 3.98671 12.0771 3.98703 12.0769 3.98687L13.0862 4.73998C13.3316 4.92311 13.4767 5.21047 13.4781 5.5162C13.4795 5.82193 13.3371 6.11061 13.0934 6.296L9.74856 8.84018C9.29108 9.18817 9.24959 9.86004 9.66081 10.2614C9.97212 10.5652 10.4515 10.6171 10.8209 10.3868L12.9576 9.05467C13.6466 8.62508 14.5461 8.75598 15.0834 9.36405L20.4838 15.4757C20.7959 15.829 20.8103 16.3543 20.518 16.7241C19.5318 17.9715 18.2578 19.2051 16.6601 20.3848C16.6179 20.416 16.5761 20.4469 16.5346 20.4775C15.1369 21.5105 14.1367 22.2498 12.5009 22.2498C10.8651 22.2498 9.86482 21.5105 8.46717 20.4775C8.42569 20.4469 8.38385 20.416 8.34164 20.3848C4.21719 17.3396 2.24155 13.9233 1.83102 10.8699C1.42305 7.83553 2.58302 5.15624 4.69592 3.86339C7.70664 2.02118 10.4295 2.75315 12.0769 3.98687ZM10.8789 5.52821C9.77485 4.71313 7.9328 4.17037 5.71802 5.52556C4.3911 6.33748 3.44198 8.18244 3.76846 10.6107C4.09239 13.0199 5.69474 16.0045 9.5046 18.8175C11.0628 19.9679 11.5635 20.2998 12.5009 20.2998C13.4383 20.2998 13.939 19.9679 15.4972 18.8175C16.6935 17.9342 17.6729 17.0329 18.4633 16.138L13.782 10.8402L11.8569 12.0404C10.7224 12.7477 9.24993 12.5885 8.29369 11.6552C7.03056 10.4223 7.15799 8.35851 8.56325 7.28959L10.8789 5.52821Z" fill="#49AE44"/>
<path fill-rule="evenodd" clip-rule="evenodd" d="M12.0769 3.98687C12.0766 3.98671 12.0771 3.98703 12.0769 3.98687L13.0862 4.73998C13.3316 4.92311 13.4767 5.21047 13.4781 5.5162C13.4795 5.82193 13.3371 6.11061 13.0934 6.296L9.74856 8.84018C9.29108 9.18817 9.24959 9.86004 9.66081 10.2614C9.97212 10.5652 10.4515 10.6171 10.8209 10.3868L12.9576 9.05467C13.6466 8.62508 14.5461 8.75598 15.0834 9.36405L20.4838 15.4757C20.7959 15.829 20.8103 16.3543 20.518 16.7241C19.5318 17.9715 18.2578 19.2051 16.6601 20.3848C16.6179 20.416 16.5761 20.4469 16.5346 20.4775C15.1369 21.5105 14.1367 22.2498 12.5009 22.2498C10.8651 22.2498 9.86482 21.5105 8.46717 20.4775C8.42569 20.4469 8.38385 20.416 8.34164 20.3848C4.21719 17.3396 2.24155 13.9233 1.83102 10.8699C1.42305 7.83553 2.58302 5.15624 4.69592 3.86339C7.70664 2.02118 10.4295 2.75315 12.0769 3.98687ZM10.8789 5.52821C9.77485 4.71313 7.9328 4.17037 5.71802 5.52556C4.3911 6.33748 3.44198 8.18244 3.76846 10.6107C4.09239 13.0199 5.69474 16.0045 9.5046 18.8175C11.0628 19.9679 11.5635 20.2998 12.5009 20.2998C13.4383 20.2998 13.939 19.9679 15.4972 18.8175C16.6935 17.9342 17.6729 17.0329 18.4633 16.138L13.782 10.8402L11.8569 12.0404C10.7224 12.7477 9.24993 12.5885 8.29369 11.6552C7.03056 10.4223 7.15799 8.35851 8.56325 7.28959L10.8789 5.52821Z" fill="black" fill-opacity="0.2"/>
</g>
</svg>
