<svg width="72" height="72" viewBox="0 0 72 72" fill="none" xmlns="http://www.w3.org/2000/svg">
<g opacity="0.4">
<path d="M36.2595 66C35.888 66 35.5165 65.9147 35.1813 65.7411L24.378 60.1488C21.3125 58.5603 18.9144 56.7776 17.0419 54.7007C12.9435 50.1586 10.6632 44.328 10.627 38.2797L10.5001 18.3728C10.485 16.0753 11.9679 14.0131 14.1848 13.2365L34.0215 6.32036C35.1994 5.89969 36.5132 5.89381 37.7122 6.29977L57.6244 12.9805C59.8534 13.7248 61.3604 15.7723 61.3725 18.0668L61.4994 37.9885C61.5386 44.0279 59.3369 49.8821 55.3019 54.4742C53.4505 56.5805 51.0736 58.3896 48.0383 60.0076L37.3317 65.7264C36.9994 65.9059 36.631 65.9971 36.2595 66Z" fill="#49AE44"/>
<path d="M36.2595 66C35.888 66 35.5165 65.9147 35.1813 65.7411L24.378 60.1488C21.3125 58.5603 18.9144 56.7776 17.0419 54.7007C12.9435 50.1586 10.6632 44.328 10.627 38.2797L10.5001 18.3728C10.485 16.0753 11.9679 14.0131 14.1848 13.2365L34.0215 6.32036C35.1994 5.89969 36.5132 5.89381 37.7122 6.29977L57.6244 12.9805C59.8534 13.7248 61.3604 15.7723 61.3725 18.0668L61.4994 37.9885C61.5386 44.0279 59.3369 49.8821 55.3019 54.4742C53.4505 56.5805 51.0736 58.3896 48.0383 60.0076L37.3317 65.7264C36.9994 65.9059 36.631 65.9971 36.2595 66Z" fill="black" fill-opacity="0.2"/>
</g>
<path d="M33.9576 42.9627C33.3777 42.9657 32.7978 42.7568 32.3508 42.3273L26.6004 36.7968C25.7124 35.9378 25.7034 34.5434 26.5822 33.6785C27.4611 32.8107 28.8957 32.8019 29.7867 33.6579L33.9244 37.6352L44.027 27.6744C44.9089 26.8066 46.3435 26.7977 47.2314 27.6538C48.1224 28.5128 48.1314 29.9101 47.2526 30.7721L35.5553 42.3067C35.1143 42.7421 34.5375 42.9598 33.9576 42.9627Z" fill="#49AE44"/>
<path d="M33.9576 42.9627C33.3777 42.9657 32.7978 42.7568 32.3508 42.3273L26.6004 36.7968C25.7124 35.9378 25.7034 34.5434 26.5822 33.6785C27.4611 32.8107 28.8957 32.8019 29.7867 33.6579L33.9244 37.6352L44.027 27.6744C44.9089 26.8066 46.3435 26.7977 47.2314 27.6538C48.1224 28.5128 48.1314 29.9101 47.2526 30.7721L35.5553 42.3067C35.1143 42.7421 34.5375 42.9598 33.9576 42.9627Z" fill="black" fill-opacity="0.2"/>
</svg>
