<svg width="24" height="24" viewBox="0 0 24 24" fill="none" xmlns="http://www.w3.org/2000/svg">
<path d="M2.71623 16.126C2.87332 17.4684 3.51789 18.7064 4.52755 19.6049C5.53722 20.5034 6.84167 20.9998 8.19323 21H11.8072C13.1588 20.9998 14.4632 20.5034 15.4729 19.6049C16.4826 18.7064 17.1271 17.4684 17.2842 16.126L17.6842 12.698C17.7342 12.271 17.7592 12.057 17.7492 11.881C17.7225 11.4326 17.5456 11.0062 17.247 10.6706C16.9484 10.335 16.5455 10.1097 16.1032 10.031C15.9292 10 15.7132 10 15.2832 10H4.71723C4.28723 10 4.07223 10 3.89823 10.03C3.45597 10.1087 3.05309 10.334 2.75449 10.6696C2.45589 11.0052 2.27897 11.4316 2.25223 11.88C2.24223 12.057 2.26623 12.27 2.31623 12.698" stroke="#49AE44" stroke-width="1.5" stroke-linecap="round"/>
<path d="M2.71623 16.126C2.87332 17.4684 3.51789 18.7064 4.52755 19.6049C5.53722 20.5034 6.84167 20.9998 8.19323 21H11.8072C13.1588 20.9998 14.4632 20.5034 15.4729 19.6049C16.4826 18.7064 17.1271 17.4684 17.2842 16.126L17.6842 12.698C17.7342 12.271 17.7592 12.057 17.7492 11.881C17.7225 11.4326 17.5456 11.0062 17.247 10.6706C16.9484 10.335 16.5455 10.1097 16.1032 10.031C15.9292 10 15.7132 10 15.2832 10H4.71723C4.28723 10 4.07223 10 3.89823 10.03C3.45597 10.1087 3.05309 10.334 2.75449 10.6696C2.45589 11.0052 2.27897 11.4316 2.25223 11.88C2.24223 12.057 2.26623 12.27 2.31623 12.698" stroke="black" stroke-opacity="0.2" stroke-width="1.5" stroke-linecap="round"/>
<path d="M17 17H19C19.394 17 19.7841 16.9224 20.1481 16.7716C20.512 16.6209 20.8427 16.3999 21.1213 16.1213C21.3999 15.8427 21.6209 15.512 21.7716 15.1481C21.9224 14.7841 22 14.394 22 14C22 13.606 21.9224 13.2159 21.7716 12.8519C21.6209 12.488 21.3999 12.1573 21.1213 11.8787C20.8427 11.6001 20.512 11.3791 20.1481 11.2284C19.7841 11.0776 19.394 11 19 11H17.5" stroke="#49AE44" stroke-width="1.5"/>
<path d="M17 17H19C19.394 17 19.7841 16.9224 20.1481 16.7716C20.512 16.6209 20.8427 16.3999 21.1213 16.1213C21.3999 15.8427 21.6209 15.512 21.7716 15.1481C21.9224 14.7841 22 14.394 22 14C22 13.606 21.9224 13.2159 21.7716 12.8519C21.6209 12.488 21.3999 12.1573 21.1213 11.8787C20.8427 11.6001 20.512 11.3791 20.1481 11.2284C19.7841 11.0776 19.394 11 19 11H17.5" stroke="black" stroke-opacity="0.2" stroke-width="1.5"/>
<path d="M9.9996 2C9.86825 2.13131 9.76406 2.2872 9.69297 2.45879C9.62188 2.63037 9.5853 2.81427 9.5853 3C9.5853 3.18573 9.62188 3.36963 9.69297 3.54121C9.76406 3.7128 9.86825 3.86869 9.9996 4C10.1309 4.13131 10.2351 4.2872 10.3062 4.45879C10.3773 4.63037 10.4139 4.81427 10.4139 5C10.4139 5.18573 10.3773 5.36963 10.3062 5.54121C10.2351 5.7128 10.1309 5.86869 9.9996 6M4.9996 7.5L5.1156 7.384C5.6226 6.877 5.6796 6.074 5.2496 5.5C5.04116 5.22253 4.93995 4.87912 4.96457 4.53296C4.98919 4.1868 5.13799 3.86118 5.3836 3.616L5.4996 3.5M14.4996 7.5L14.6156 7.384C15.1226 6.877 15.1796 6.074 14.7496 5.5C14.5412 5.22253 14.4399 4.87912 14.4646 4.53296C14.4892 4.1868 14.638 3.86118 14.8836 3.616L14.9996 3.5" stroke="#49AE44" stroke-width="1.5" stroke-linecap="round" stroke-linejoin="round"/>
<path d="M9.9996 2C9.86825 2.13131 9.76406 2.2872 9.69297 2.45879C9.62188 2.63037 9.5853 2.81427 9.5853 3C9.5853 3.18573 9.62188 3.36963 9.69297 3.54121C9.76406 3.7128 9.86825 3.86869 9.9996 4C10.1309 4.13131 10.2351 4.2872 10.3062 4.45879C10.3773 4.63037 10.4139 4.81427 10.4139 5C10.4139 5.18573 10.3773 5.36963 10.3062 5.54121C10.2351 5.7128 10.1309 5.86869 9.9996 6M4.9996 7.5L5.1156 7.384C5.6226 6.877 5.6796 6.074 5.2496 5.5C5.04116 5.22253 4.93995 4.87912 4.96457 4.53296C4.98919 4.1868 5.13799 3.86118 5.3836 3.616L5.4996 3.5M14.4996 7.5L14.6156 7.384C15.1226 6.877 15.1796 6.074 14.7496 5.5C14.5412 5.22253 14.4399 4.87912 14.4646 4.53296C14.4892 4.1868 14.638 3.86118 14.8836 3.616L14.9996 3.5" stroke="black" stroke-opacity="0.2" stroke-width="1.5" stroke-linecap="round" stroke-linejoin="round"/>
</svg>
