<svg width="22" height="22" viewBox="0 0 22 22" fill="none" xmlns="http://www.w3.org/2000/svg">
<path fill-rule="evenodd" clip-rule="evenodd" d="M10.9727 0.222168C5.0356 0.222168 0.222656 5.03511 0.222656 10.9722C0.222656 16.9093 5.0356 21.7222 10.9727 21.7222C16.9098 21.7222 21.7227 16.9093 21.7227 10.9722C21.7227 5.03511 16.9098 0.222168 10.9727 0.222168ZM11.7227 5.47217C11.7227 5.05796 11.3869 4.72217 10.9727 4.72217C10.5585 4.72217 10.2227 5.05796 10.2227 5.47217V6.28649C9.60336 6.39437 9.03573 6.63453 8.57649 6.9809C7.93658 7.46354 7.47266 8.18637 7.47266 9.0463C7.47266 9.80417 7.73558 10.5096 8.42231 10.9825C9.0484 11.4136 9.92236 11.5741 10.9727 11.5741C11.9286 11.5741 12.4946 11.7216 12.8067 11.9296C13.0539 12.0944 13.2227 12.3501 13.2227 12.8982C13.2227 13.3646 13.0341 13.6474 12.7016 13.8516C12.3239 14.0835 11.7308 14.2222 10.9727 14.2222C10.2773 14.2222 9.68036 14.0261 9.27786 13.7478C8.87232 13.4675 8.72266 13.1548 8.72266 12.8982C8.72266 12.484 8.38687 12.1482 7.97266 12.1482C7.55845 12.1482 7.22266 12.484 7.22266 12.8982C7.22266 13.7871 7.74457 14.5114 8.42484 14.9817C8.92681 15.3287 9.54746 15.5655 10.2227 15.6668V16.4722C10.2227 16.8864 10.5585 17.2222 10.9727 17.2222C11.3869 17.2222 11.7227 16.8864 11.7227 16.4722V15.6828C12.3622 15.6126 12.976 15.4433 13.4864 15.1299C14.2397 14.6674 14.7227 13.9132 14.7227 12.8982C14.7227 11.9648 14.3915 11.1834 13.6387 10.6816C12.9508 10.2229 12.0168 10.0741 10.9727 10.0741C10.023 10.0741 9.52196 9.91847 9.27306 9.74707C9.08474 9.61737 8.97266 9.43387 8.97266 9.0463C8.97266 8.76074 9.12434 8.44651 9.47976 8.17846C9.83546 7.91013 10.3609 7.72217 10.9727 7.72217C11.5845 7.72217 12.1099 7.91013 12.4656 8.17846C12.821 8.44651 12.9727 8.76074 12.9727 9.0463C12.9727 9.46047 13.3085 9.79627 13.7227 9.79627C14.1369 9.79627 14.4727 9.46047 14.4727 9.0463C14.4727 8.18637 14.0088 7.46354 13.3689 6.9809C12.9096 6.63453 12.342 6.39437 11.7227 6.28649V5.47217Z" fill="#3A8B36"/>
</svg>
