<svg width="28" height="28" viewBox="0 0 28 28" fill="none" xmlns="http://www.w3.org/2000/svg">
<path fill-rule="evenodd" clip-rule="evenodd" d="M25.6622 9.77098H20.7217C18.4226 9.77502 16.5601 11.591 16.556 13.8327C16.5529 16.0794 18.4175 17.9034 20.7217 17.9065H25.6663V18.2634C25.6663 22.1825 23.2905 24.5 19.2699 24.5H8.73049C4.70886 24.5 2.33301 22.1825 2.33301 18.2634V9.7275C2.33301 5.80839 4.70886 3.5 8.73049 3.5H19.2657C23.2863 3.5 25.6622 5.80839 25.6622 9.7275V9.77098ZM7.86249 9.76188H14.4425H14.4466H14.4549C14.9475 9.75986 15.3457 9.36855 15.3437 8.88726C15.3416 8.40698 14.9392 8.01871 14.4466 8.02073H7.86249C7.37301 8.02275 6.97582 8.41001 6.97375 8.88827C6.97167 9.36855 7.3699 9.75986 7.86249 9.76188Z" fill="#49AE44"/>
<path fill-rule="evenodd" clip-rule="evenodd" d="M25.6622 9.77098H20.7217C18.4226 9.77502 16.5601 11.591 16.556 13.8327C16.5529 16.0794 18.4175 17.9034 20.7217 17.9065H25.6663V18.2634C25.6663 22.1825 23.2905 24.5 19.2699 24.5H8.73049C4.70886 24.5 2.33301 22.1825 2.33301 18.2634V9.7275C2.33301 5.80839 4.70886 3.5 8.73049 3.5H19.2657C23.2863 3.5 25.6622 5.80839 25.6622 9.7275V9.77098ZM7.86249 9.76188H14.4425H14.4466H14.4549C14.9475 9.75986 15.3457 9.36855 15.3437 8.88726C15.3416 8.40698 14.9392 8.01871 14.4466 8.02073H7.86249C7.37301 8.02275 6.97582 8.41001 6.97375 8.88827C6.97167 9.36855 7.3699 9.75986 7.86249 9.76188Z" fill="black" fill-opacity="0.2"/>
<g opacity="0.4">
<path d="M18.7097 14.3462C18.9536 15.4559 19.9266 16.2366 21.0374 16.2163H24.829C25.2911 16.2163 25.666 15.8336 25.666 15.3604V12.407C25.665 11.9348 25.2911 11.5511 24.829 11.55H20.9481C19.6846 11.5541 18.664 12.6029 18.666 13.8954C18.666 14.0467 18.6809 14.1979 18.7097 14.3462Z" fill="#49AE44"/>
<path d="M18.7097 14.3462C18.9536 15.4559 19.9266 16.2366 21.0374 16.2163H24.829C25.2911 16.2163 25.666 15.8336 25.666 15.3604V12.407C25.665 11.9348 25.2911 11.5511 24.829 11.55H20.9481C19.6846 11.5541 18.664 12.6029 18.666 13.8954C18.666 14.0467 18.6809 14.1979 18.7097 14.3462Z" fill="black" fill-opacity="0.2"/>
</g>
<ellipse cx="20.9997" cy="13.8832" rx="1.16667" ry="1.16667" fill="#49AE44"/>
<ellipse cx="20.9997" cy="13.8832" rx="1.16667" ry="1.16667" fill="black" fill-opacity="0.2"/>
</svg>
