<svg width="28" height="28" viewBox="0 0 28 28" fill="none" xmlns="http://www.w3.org/2000/svg">
<path d="M13.9968 17.7036C8.96499 17.7036 4.66699 18.4969 4.66699 21.6703C4.66699 24.8448 8.93816 25.6661 13.9968 25.6661C19.0287 25.6661 23.3267 24.8739 23.3267 21.6994C23.3267 18.5249 19.0567 17.7036 13.9968 17.7036Z" fill="#49AE44"/>
<path d="M13.9968 17.7036C8.96499 17.7036 4.66699 18.4969 4.66699 21.6703C4.66699 24.8448 8.93816 25.6661 13.9968 25.6661C19.0287 25.6661 23.3267 24.8739 23.3267 21.6994C23.3267 18.5249 19.0567 17.7036 13.9968 17.7036Z" fill="black" fill-opacity="0.2"/>
<g opacity="0.4">
<path d="M13.9963 14.681C17.4239 14.681 20.1703 11.9335 20.1703 8.50701C20.1703 5.08051 17.4239 2.33301 13.9963 2.33301C10.5698 2.33301 7.82227 5.08051 7.82227 8.50701C7.82227 11.9335 10.5698 14.681 13.9963 14.681Z" fill="#49AE44"/>
<path d="M13.9963 14.681C17.4239 14.681 20.1703 11.9335 20.1703 8.50701C20.1703 5.08051 17.4239 2.33301 13.9963 2.33301C10.5698 2.33301 7.82227 5.08051 7.82227 8.50701C7.82227 11.9335 10.5698 14.681 13.9963 14.681Z" fill="black" fill-opacity="0.2"/>
</g>
</svg>
