<svg width="19" height="19" viewBox="0 0 19 19" fill="none" xmlns="http://www.w3.org/2000/svg">
<path d="M14.875 3.5H12.625V2.375C12.625 2.27554 12.5855 2.18016 12.5152 2.10984C12.4448 2.03951 12.3495 2 12.25 2C12.1505 2 12.0552 2.03951 11.9848 2.10984C11.9145 2.18016 11.875 2.27554 11.875 2.375V3.5H6.625V2.375C6.625 2.27554 6.58549 2.18016 6.51517 2.10984C6.44484 2.03951 6.34946 2 6.25 2C6.15054 2 6.05516 2.03951 5.98484 2.10984C5.91451 2.18016 5.875 2.27554 5.875 2.375V3.5H3.625C3.1279 3.5006 2.65133 3.69833 2.29983 4.04983C1.94833 4.40133 1.7506 4.8779 1.75 5.375V15.125C1.7506 15.6221 1.94833 16.0987 2.29983 16.4502C2.65133 16.8017 3.1279 16.9994 3.625 17H14.875C15.3723 17 15.8492 16.8025 16.2008 16.4508C16.5525 16.0992 16.75 15.6223 16.75 15.125V5.375C16.75 4.87772 16.5525 4.40081 16.2008 4.04917C15.8492 3.69754 15.3723 3.5 14.875 3.5ZM16 15.125C16 15.4234 15.8815 15.7095 15.6705 15.9205C15.4595 16.1315 15.1734 16.25 14.875 16.25H3.625C3.32663 16.25 3.04048 16.1315 2.8295 15.9205C2.61853 15.7095 2.5 15.4234 2.5 15.125V8.75H16V15.125ZM16 8H2.5V5.375C2.5 4.754 3.0025 4.25 3.625 4.25H5.875V5.375C5.875 5.47446 5.91451 5.56984 5.98484 5.64016C6.05516 5.71049 6.15054 5.75 6.25 5.75C6.34946 5.75 6.44484 5.71049 6.51517 5.64016C6.58549 5.56984 6.625 5.47446 6.625 5.375V4.25H11.875V5.375C11.875 5.47446 11.9145 5.56984 11.9848 5.64016C12.0552 5.71049 12.1505 5.75 12.25 5.75C12.3495 5.75 12.4448 5.71049 12.5152 5.64016C12.5855 5.56984 12.625 5.47446 12.625 5.375V4.25H14.875C15.1734 4.25 15.4595 4.36853 15.6705 4.5795C15.8815 4.79048 16 5.07663 16 5.375V8Z" fill="#637381"/>
</svg>
