<svg width="24" height="24" viewBox="0 0 24 24" fill="none" xmlns="http://www.w3.org/2000/svg">
<path fill-rule="evenodd" clip-rule="evenodd" d="M21.2684 21.053L2.7324 21.054C2.55686 21.054 2.38442 21.0077 2.23241 20.92C2.08039 20.8322 1.95416 20.706 1.86639 20.5539C1.77862 20.4019 1.73242 20.2295 1.73242 20.0539C1.73242 19.8784 1.77863 19.706 1.8664 19.554L11.1324 3.49996C11.2202 3.34795 11.3464 3.22172 11.4984 3.13396C11.6504 3.0462 11.8229 3 11.9984 3C12.1739 3 12.3464 3.0462 12.4984 3.13396C12.6504 3.22172 12.7766 3.34795 12.8644 3.49996L22.1344 19.553C22.2222 19.705 22.2684 19.8774 22.2684 20.0529C22.2684 20.2285 22.2222 20.4009 22.1344 20.5529C22.0466 20.705 21.9204 20.8312 21.7684 20.919C21.6164 21.0067 21.4439 21.053 21.2684 21.053ZM11.2484 9.54496L11.3644 15.211H12.6364L12.7534 9.54496H11.2484ZM11.9984 18.117C12.4784 18.117 12.8534 17.748 12.8534 17.285C12.8534 16.822 12.4784 16.459 11.9974 16.459C11.8871 16.4563 11.7773 16.4757 11.6746 16.5159C11.5718 16.5562 11.4781 16.6166 11.399 16.6935C11.3198 16.7704 11.2568 16.8623 11.2136 16.9639C11.1704 17.0654 11.1479 17.1746 11.1474 17.285C11.1474 17.748 11.5224 18.117 11.9974 18.117H11.9984Z" fill="#FF4842"/>
</svg>
